<svg id="icon" xmlns="http://www.w3.org/2000/svg" width="242.979" height="268.153" viewBox="0 0 242.979 268.153">
  <g id="Group_10614" data-name="Group 10614">
    <path id="Path_49" data-name="Path 49" d="M91.449,268.153c-12.526,0-24.213-5.986-34.775-17.82l-.156-.179C19.016,205.385,0,162.067,0,121.4,0,54.461,54.5,0,121.49,0S242.979,54.461,242.979,121.4c0,40.63-19.029,83.949-56.562,128.751l-11.608-9.725c35.186-42,53.027-82.049,53.027-119.026a106.347,106.347,0,0,0-212.694,0c0,36.985,17.8,77,52.905,118.933,7.963,8.89,16.336,13.137,24.868,12.631,17.7-1.053,32.46-21.5,32.6-21.711l.4-.526c5.122-6.114,7.719-11.694,7.719-16.587a12.152,12.152,0,0,0-24.3,0c0,4.9,2.595,10.48,7.712,16.587l-11.609,9.725C97.98,231.545,94.2,222.693,94.2,214.142a27.294,27.294,0,0,1,54.589,0c0,8.471-3.721,17.244-11.061,26.08-2.208,3.061-19.834,26.429-43.908,27.86q-1.187.071-2.366.071" fill="#00abbe"/>
    <path id="Path_50" data-name="Path 50" d="M138.985,236.215a5.215,5.215,0,1,1-5.215-5.21,5.213,5.213,0,0,1,5.215,5.21" transform="translate(-12.284 -22.074)" fill="#f99e4b"/>
    <path id="Path_51" data-name="Path 51" d="M166.183,117.837a35.621,35.621,0,1,1-35.621-35.592,35.607,35.607,0,0,1,35.621,35.592" transform="translate(-9.072 -7.859)" fill="#f99e4b"/>
  </g>
</svg>
