<svg xmlns="http://www.w3.org/2000/svg" xmlns:xlink="http://www.w3.org/1999/xlink" width="350.033" height="96.999" viewBox="0 0 350.033 96.999">
  <defs>
    <clipPath id="clip-path">
      <rect id="Rectangle_5880" data-name="Rectangle 5880" width="350.033" height="96.999" fill="none"/>
    </clipPath>
  </defs>
  <g id="logos" transform="translate(0 0)">
    <path id="Path_451" data-name="Path 451" d="M42.855,14.071,13.086,26.018V36.64L42.855,24.7Z" transform="translate(46.47 49.967)" fill="#fff"/>
    <path id="Path_452" data-name="Path 452" d="M52.753,8.547,13.086,24.553V35.175l39.668-16Z" transform="translate(46.469 30.349)" fill="#fff"/>
    <path id="Path_453" data-name="Path 453" d="M72.537,1.989,13.086,26.474V37.1L72.537,12.616Z" transform="translate(46.47 7.062)" fill="#fff"/>
    <g id="Group_10585" data-name="Group 10585" transform="translate(0 0)">
      <g id="Group_10584" data-name="Group 10584" clip-path="url(#clip-path)">
        <path id="Path_454" data-name="Path 454" d="M36.314,14.365s-5.1,5.207-15.219,7.113a56.628,56.628,0,0,0-14.55,4.833V36.934A49.819,49.819,0,0,1,22.36,31.068a32.349,32.349,0,0,0,13.954-6.076Z" transform="translate(23.242 51.011)" fill="#fff"/>
        <path id="Path_455" data-name="Path 455" d="M44.038,9.718s-6.795,7.054-20.275,8.957A52.079,52.079,0,0,0,4.37,25.633V36.26a52.2,52.2,0,0,1,21.076-7.992,37.549,37.549,0,0,0,18.591-7.924Z" transform="translate(15.519 34.509)" fill="#fff"/>
        <path id="Path_456" data-name="Path 456" d="M59.556,5.059s-10.559,11.2-31.5,13.1A49.314,49.314,0,0,0,0,30.122V40.749a53.85,53.85,0,0,1,30.67-13A51.194,51.194,0,0,0,59.556,15.686Z" transform="translate(0 17.964)" fill="#fff"/>
        <path id="Path_457" data-name="Path 457" d="M62.548,22.227V21.79a2.1,2.1,0,0,1,3.186,0v.437Z" transform="translate(222.117 74.771)" fill="#fff"/>
        <path id="Path_458" data-name="Path 458" d="M76.5,79.641H73.319a46.631,46.631,0,0,1-4.9-.96c-6.749-2.034-9.985-7.514-8.583-14.427,1.256-6.231,4.756-11.264,8.72-16.038A97.933,97.933,0,0,1,83.2,34.185,3.765,3.765,0,0,0,84.888,31.4a20.361,20.361,0,0,1,5.7-12.179c7.123-7.705,16.4-11.533,26.233-14.286.482-.141,1.11-.437,1.242.341.137.869-.678.869-1.233,1.033a42.681,42.681,0,0,0-12.953,6.3c-4.178,3.2-7.282,7.077-7.66,13.08a335.476,335.476,0,0,1,38.8-16.348c.587-.25.678.046.592.532a270.829,270.829,0,0,0-36,21.172c-6.576,4.706-12.943,9.671-18.214,15.879a31.109,31.109,0,0,0-4.014,5.844c-4.132,8,.1,16.084,9.061,17.3,5.293.715,10.276-.542,15.174-2.385,7.441-2.8,14.022-7.154,20.649-11.423a.531.531,0,0,1,.746.05l.046.064a1.568,1.568,0,0,1-.655,1.074c-10.167,6.7-20.016,13.949-31.366,18.632A46.068,46.068,0,0,1,76.5,79.641" transform="translate(211.337 16.919)" fill="#fff"/>
        <path id="Path_459" data-name="Path 459" d="M55.135,38.847c-.646-1-.114-1.6.437-2.18C66.85,24.743,78.719,13.56,93.8,6.461c4.72-2.221,9.68-3.664,15.032-3.027,8.32.992,12.507,7.045,10.7,15.66-1.8,8.483-6.836,15.1-12.3,21.468C97.92,51.417,86.3,59.536,74.882,67.9a146.831,146.831,0,0,1-22.3,13.99c-.728.35-1.429,1.079-2.43.624.35-1.07,1.379-1.338,2.139-1.861,13.421-9.2,26.419-18.937,37.97-30.474a84.571,84.571,0,0,0,9.589-11.2,38.809,38.809,0,0,0,4.11-7.336c4.392-10.591-2.18-17.349-12.643-16.694-4.933.3-9.366,2.18-13.576,4.642A66.968,66.968,0,0,0,64.26,30.077c-3.022,2.981-6.071,5.83-9.125,8.77" transform="translate(178.111 11.656)" fill="#fff"/>
        <path id="Path_460" data-name="Path 460" d="M74.371,17.963a9.043,9.043,0,0,1-8.893-9.157,9.073,9.073,0,0,1,18.141.364,8.994,8.994,0,0,1-9.193,8.793Z" transform="translate(232.504 -0.001)" fill="#fff"/>
        <path id="Path_461" data-name="Path 461" d="M76.687,7.141,76.1,6.6a6.193,6.193,0,0,1,3.714-1.065c-1.411.774-2.094,1.506-3.122,1.6" transform="translate(270.224 19.654)" fill="#fff"/>
        <path id="Path_462" data-name="Path 462" d="M66.374,19.519l.751-.082a2.241,2.241,0,0,0,.273.983,1.613,1.613,0,0,0,.605.569,2.012,2.012,0,0,0,.874.214,1.612,1.612,0,0,0,1.1-.364,1.206,1.206,0,0,0,.391-.942,1.127,1.127,0,0,0-.141-.592,1.064,1.064,0,0,0-.437-.437,8.372,8.372,0,0,0-1.242-.437,4.486,4.486,0,0,1-1.211-.528,1.8,1.8,0,0,1-.56-.678,2.087,2.087,0,0,1-.2-.924,2.008,2.008,0,0,1,1.884-2.116,2.133,2.133,0,0,1,.241,0,2.39,2.39,0,0,1,1.174.278,1.93,1.93,0,0,1,.783.792,2.69,2.69,0,0,1,.3,1.215l-.765.077a1.678,1.678,0,0,0-.437-1.11,1.414,1.414,0,0,0-1.038-.355,1.475,1.475,0,0,0-1.029.314,1.044,1.044,0,0,0-.355.815.964.964,0,0,0,.259.724,3.089,3.089,0,0,0,1.174.514,6.92,6.92,0,0,1,1.252.437,2.073,2.073,0,0,1,.828.769,2.169,2.169,0,0,1,.282,1.138,2.443,2.443,0,0,1-.3,1.2,2.052,2.052,0,0,1-.8.824,2.609,2.609,0,0,1-1.224.278,2.335,2.335,0,0,1-1.78-.7,2.72,2.72,0,0,1-.655-1.875" transform="translate(235.695 50.358)" fill="#fff"/>
        <path id="Path_463" data-name="Path 463" d="M68.189,21.865v-7.65h4.06v.9H68.981v2.371h2.826V18.4H68.981v3.491Z" transform="translate(242.15 50.476)" fill="#fff"/>
        <path id="Path_464" data-name="Path 464" d="M69.815,21.867v-7.65H71.9a3.619,3.619,0,0,1,1.17.141,1.942,1.942,0,0,1,.91.669,3.429,3.429,0,0,1,.605,1.224,6.4,6.4,0,0,1,.214,1.743,5.871,5.871,0,0,1-.369,2.2,2.3,2.3,0,0,1-2.435,1.661Zm.792-.9H71.9a2.245,2.245,0,0,0,1.174-.259,1.681,1.681,0,0,0,.614-.874,5.4,5.4,0,0,0,.287-1.861,4.491,4.491,0,0,0-.3-1.83,1.672,1.672,0,0,0-.774-.874,2.485,2.485,0,0,0-1.015-.155H70.589Z" transform="translate(247.923 50.472)" fill="#fff"/>
        <path id="Path_465" data-name="Path 465" d="M71.422,21.865l2.321-7.65h.874l2.471,7.65h-.91l-.7-2.317H72.933l-.651,2.317Zm1.743-3.14h2.048L74.59,16.6c-.2-.646-.337-1.174-.437-1.584a12.581,12.581,0,0,1-.323,1.465Z" transform="translate(253.63 50.478)" fill="#fff"/>
        <line id="Line_4" data-name="Line 4" y2="55.055" transform="translate(175.017 20.97)" fill="none" stroke="#fff" stroke-linecap="round" stroke-width="3.5"/>
      </g>
    </g>
  </g>
</svg>
