<svg xmlns="http://www.w3.org/2000/svg" width="60" height="60" viewBox="0 0 60 60">
  <g id="Advanced_Tracking_Solution" data-name="Advanced Tracking Solution" transform="translate(-323.269 -2254)">
    <path id="Path_61" data-name="Path 61" d="M406.05,324.8A11.251,11.251,0,1,0,414,328.1,11.247,11.247,0,0,0,406.05,324.8Zm0,15h0a3.749,3.749,0,1,1,2.652-1.1,3.752,3.752,0,0,1-2.652,1.1Z" transform="translate(-34.032 1966.7)" fill="#00abbe"/>
    <path id="Path_62" data-name="Path 62" d="M182.05,100.8A11.251,11.251,0,1,0,190,104.1,11.247,11.247,0,0,0,182.05,100.8Zm0,15h0a3.749,3.749,0,1,1,2.652-1.1,3.752,3.752,0,0,1-2.652,1.1Z" transform="translate(152.469 2153.2)" fill="#00abbe"/>
    <path id="Path_63" data-name="Path 63" d="M245.676,169.963a3.749,3.749,0,0,0,3.75-3.75v-8.906a11.719,11.719,0,0,0-22.406-4.81l-12.647,28.125a4.219,4.219,0,0,1-8.072-1.753v-8.906a3.75,3.75,0,0,0-7.5,0v8.906a11.719,11.719,0,0,0,22.406,4.81l12.647-28.125a4.219,4.219,0,0,1,8.072,1.753v8.906a3.75,3.75,0,0,0,3.75,3.75Z" transform="translate(129.155 2115.912)" fill="#f99e4b"/>
  </g>
</svg>
