<svg xmlns="http://www.w3.org/2000/svg" width="85.736" height="83.057" viewBox="0 0 85.736 83.057">
  <g id="area" transform="translate(-1276.264 -3707)">
    <path id="Path_96" data-name="Path 96" d="M246.036,222.418a4.019,4.019,0,1,1-4.019-4.019,4.02,4.02,0,0,1,4.019,4.019" transform="translate(1054.342 3515.393)" fill="#f99e4b"/>
    <path id="Path_97" data-name="Path 97" d="M436.436,177.621a4.019,4.019,0,1,1-4.019-4.018,4.019,4.019,0,0,1,4.019,4.018" transform="translate(909.488 3549.473)" fill="#f99e4b"/>
    <path id="Path_98" data-name="Path 98" d="M185.532,223.54H228.4A14.736,14.736,0,0,0,243.135,208.8v-14.32l-1.768,1.34-6.269,4.942V208.8a6.7,6.7,0,0,1-1.822,4.554l-23.309-23.309,7.234-7.234a47.166,47.166,0,0,1-4.6-6.765l-33.677,33.679a6.663,6.663,0,0,1-.094-.924V165.937a6.7,6.7,0,0,1,6.7-6.7h22.84a27.941,27.941,0,0,1,1.568-8.038h-24.41A14.736,14.736,0,0,0,170.8,165.937V208.8a14.736,14.736,0,0,0,14.735,14.736Zm38.526-8.038H185.532a6.672,6.672,0,0,1-.924-.093l19.679-19.679Z" transform="translate(1105.469 3566.516)" fill="#f99e4b"/>
    <path id="Path_99" data-name="Path 99" d="M381.294,106.4A20.1,20.1,0,0,0,361.2,126.494c0,12.673,12.633,23.135,15.164,25.106l4.93,3.831,4.93-3.844c2.531-1.956,15.164-12.419,15.164-25.091A20.095,20.095,0,0,0,381.294,106.4Zm0,38.849s-12.056-9.377-12.056-18.754a12.056,12.056,0,0,1,24.113,0c0,9.378-12.057,18.755-12.057,18.755Z" transform="translate(960.612 3600.6)" fill="#f99e4b"/>
  </g>
</svg>
