<svg xmlns="http://www.w3.org/2000/svg" width="19.51" height="19.51" viewBox="0 0 19.51 19.51">
  <path id="Path_65" data-name="Path 65" d="M97.422,14H90.09A6.087,6.087,0,0,0,84,20.089v7.332A6.087,6.087,0,0,0,90.09,33.51h7.332a6.087,6.087,0,0,0,6.089-6.089V20.089A6.087,6.087,0,0,0,97.422,14Zm-.867,10.655-3.88,3.88a1.216,1.216,0,0,1-1.719-1.721l3.06-3.058L90.957,20.7a1.216,1.216,0,0,1,1.719-1.721l3.88,3.88a1.211,1.211,0,0,1,.355.9v.039a1.217,1.217,0,0,1-.355.861Z" transform="translate(-84.001 -14)" fill="#f99e4b"/>
</svg>
