<svg xmlns="http://www.w3.org/2000/svg" width="24.556" height="24.555" viewBox="0 0 24.556 24.555">
  <g id="Group_10830" data-name="Group 10830" transform="translate(0.001)">
    <path id="Path_558" data-name="Path 558" d="M247.055,410.527a1.726,1.726,0,1,1-1.726-1.726,1.726,1.726,0,0,1,1.726,1.726" transform="translate(-236.695 -387.699)" fill="#fff"/>
    <path id="Path_559" data-name="Path 559" d="M409.455,410.527a1.726,1.726,0,1,1-1.727-1.726,1.726,1.726,0,0,1,1.727,1.726" transform="translate(-387.969 -387.699)" fill="#fff"/>
    <path id="Path_560" data-name="Path 560" d="M145.7,104.4l3.764,11.292h0a4.6,4.6,0,0,0,4.37,3.146h6.726a4.6,4.6,0,0,0,4.351-3.1l2.3-6.649h0a2.482,2.482,0,0,0-2.344-3.3H149.407l-.787-2.363h0a3.837,3.837,0,0,0-3.641-2.624h-.645a1.535,1.535,0,0,0,0,3.069h.645a.767.767,0,0,1,.725.526Zm18.344,4.462-2.033,5.874h0a1.534,1.534,0,0,1-1.45,1.032h-6.726a1.535,1.535,0,0,1-1.446-1.048l-1.964-5.859Z" transform="translate(-142.801 -100.8)" fill="#fff"/>
  </g>
</svg>
