<svg xmlns="http://www.w3.org/2000/svg" width="61.618" height="66.433" viewBox="0 0 61.618 66.433">
  <g id="Collaborative_Culture-ic" data-name="Collaborative Culture-ic" transform="translate(-98.394 -8.75)">
    <path id="Path_548" data-name="Path 548" d="M159.633,160.973l-8.723-7.366a4.442,4.442,0,0,0-2.621-6.351,4.461,4.461,0,0,0-.159-5.535,4.393,4.393,0,0,0-2.235-1.422,4.46,4.46,0,0,0-.394-5.191,4.408,4.408,0,0,0-2.737-1.523,4.437,4.437,0,0,0-3.824-5.876,4.4,4.4,0,0,0-3.245,1.028l-.165.139-5-2.333a4.46,4.46,0,0,0-6.015,1.367,4.772,4.772,0,0,0-.713,1.746l-1.09-.92a4.444,4.444,0,0,0-7.068,4.85,4.45,4.45,0,0,0-3.132,6.713,4.44,4.44,0,0,0-2.393,6.955,4.435,4.435,0,0,0-2.617,6.351l-8.728,7.366a1.072,1.072,0,0,0,1.382,1.638l8.758-7.39,3.513,2.962a4.409,4.409,0,0,0,2.856,1.045c.128,0,.256-.006.385-.017a4.436,4.436,0,0,0,4.049-4.8,4.448,4.448,0,0,0-.53-1.754,4.375,4.375,0,0,0,3.312-5.013h0a4.34,4.34,0,0,0,3.324-1.514,4,4,0,0,0,1.144-3.033c0-.039-.015-.075-.017-.112a4.317,4.317,0,0,0,.528.05c.128,0,.257-.005.386-.017a4.336,4.336,0,0,0,2.957-1.491,3.976,3.976,0,0,0,1.153-3.027,4.56,4.56,0,0,0-1.169-2.836l6.265-5.29a2.317,2.317,0,0,1,3.247.275,2.31,2.31,0,0,1-.276,3.247l-.81.686h0a1.071,1.071,0,0,0,1.384,1.635l.005-.005a2.313,2.313,0,0,1,1.669-.526,2.282,2.282,0,0,1,1.569.8,2.307,2.307,0,0,1-.276,3.247l-1.719,1.454h0a1.072,1.072,0,0,0,1.384,1.636h0a2.318,2.318,0,0,1,1.677-.532,2.281,2.281,0,0,1,1.563.8,2.31,2.31,0,0,1-.276,3.247l-2.085,1.759h0a1.071,1.071,0,1,0,1.381,1.638l0,0a2.3,2.3,0,0,1,2.968,3.522l-9.737,8.222c-3.974,3.355-7.252,3-12.176,2.021a1.059,1.059,0,0,0-.9.232L111,176.12a1.072,1.072,0,0,0,1.383,1.637l14.27-12.047a25.356,25.356,0,0,0,5.693.6l13.685,11.451a1.072,1.072,0,1,0,1.377-1.643l-12.232-10.236a13.191,13.191,0,0,0,4.946-2.754l9.374-7.91,8.753,7.391a1.071,1.071,0,1,0,1.382-1.636ZM126.41,131.856a2.107,2.107,0,0,1-.111-2.754,2.336,2.336,0,0,1,3.287-.637l4.143,1.933-4.523,3.819-2.786-2.351-.008-.006s0,0,0,0Zm-9.359,24.411a2.308,2.308,0,0,1-3.24.274l-3.882-3.272a2.3,2.3,0,0,1,2.95-3.536l3.9,3.291a2.31,2.31,0,0,1,.27,3.244Zm2.847-6.43a2.308,2.308,0,0,1-3.245.277l-2.367-2s0-.006-.008-.01h0l-2.084-1.758a2.3,2.3,0,0,1,2.969-3.52h0s.006,0,.009,0l4.448,3.758a2.306,2.306,0,0,1,.278,3.244Zm4.355-5.156a2.308,2.308,0,0,1-3.248.274l-4.473-3.777,0,0-1.707-1.44a2.3,2.3,0,0,1,2.963-3.525l.01.009,6.182,5.216a2.47,2.47,0,0,1,.859,1.753,1.944,1.944,0,0,1-.582,1.493Zm5-4.6a2.31,2.31,0,0,1-3.239.276.117.117,0,0,0-.144-.021,4.692,4.692,0,0,0-.514-.536l-6.183-5.217-.013-.01-.8-.674a2.3,2.3,0,1,1,2.969-3.523l1.465,1.237,0,0,2.327,1.965.72.607h0l3.138,2.65a2.466,2.466,0,0,1,.858,1.754,1.933,1.933,0,0,1-.587,1.489Z" transform="translate(0 -102.827)" fill="#f99e4b"/>
    <path id="Path_549" data-name="Path 549" d="M377.362,16.529a1.07,1.07,0,0,0,1.071-1.072V9.822a1.072,1.072,0,0,0-2.143,0v5.636A1.07,1.07,0,0,0,377.362,16.529Z" transform="translate(-243.865)" fill="#00abbe"/>
    <path id="Path_550" data-name="Path 550" d="M493.293,49.513a1.075,1.075,0,0,0,.866-.437l3.334-4.543a1.072,1.072,0,0,0-1.729-1.268l-3.334,4.543a1.071,1.071,0,0,0,.863,1.7Z" transform="translate(-345.601 -29.904)" fill="#00abbe"/>
    <path id="Path_551" data-name="Path 551" d="M236.666,49.084a1.071,1.071,0,0,0,1.727-1.268l-3.336-4.543a1.071,1.071,0,1,0-1.726,1.268Z" transform="translate(-118.231 -29.912)" fill="#00abbe"/>
  </g>
</svg>
