<svg xmlns="http://www.w3.org/2000/svg" width="60" height="60" viewBox="0 0 60 60">
  <g id="Competitive_Employment_Packages-ic" data-name="Competitive Employment Packages-ic" transform="translate(-315 -17.5)">
    <path id="Path_537" data-name="Path 537" d="M455,17.5h3.529v5.294H455Z" transform="translate(-111.765)" fill="#00abbe"/>
    <path id="Path_538" data-name="Path 538" d="M455,288.75h3.529v5.294H455Z" transform="translate(-111.765 -216.544)" fill="#00abbe"/>
    <path id="Path_539" data-name="Path 539" d="M544.18,58.629l3.743-3.743,2.5,2.5-3.743,3.743Z" transform="translate(-182.959 -29.846)" fill="#00abbe"/>
    <path id="Path_540" data-name="Path 540" d="M352.38,250.424l3.743-3.743,2.5,2.5-3.743,3.743Z" transform="translate(-29.841 -182.96)" fill="#00abbe"/>
    <path id="Path_541" data-name="Path 541" d="M544.18,249.171l2.5-2.5,3.743,3.743-2.5,2.5Z" transform="translate(-182.959 -182.955)" fill="#00abbe"/>
    <path id="Path_542" data-name="Path 542" d="M352.38,57.379l2.5-2.5,3.743,3.743-2.5,2.5Z" transform="translate(-29.841 -29.844)" fill="#00abbe"/>
    <path id="Path_543" data-name="Path 543" d="M586.25,157.5h5.294v3.529H586.25Z" transform="translate(-216.544 -111.765)" fill="#00abbe"/>
    <path id="Path_544" data-name="Path 544" d="M315,157.5h5.294v3.529H315Z" transform="translate(0 -111.765)" fill="#00abbe"/>
    <path id="Path_545" data-name="Path 545" d="M367.5,89.412a19.412,19.412,0,1,0,5.686-13.726A19.412,19.412,0,0,0,367.5,89.412Zm28.235-3.529-5.453,3.848,2.083,6.741L386.912,92.3l-5.453,4.166,2.083-6.741-5.453-3.848h6.741l2.083-7.059,2.083,7.059Z" transform="translate(-41.912 -41.912)" fill="#f99e4b"/>
  </g>
</svg>
