<svg xmlns="http://www.w3.org/2000/svg" width="42.531" height="82.435" viewBox="0 0 42.531 82.435">
  <g id="customer" transform="translate(-1309.56 -4012)">
    <path id="Path_100" data-name="Path 100" d="M292.109,217.456a4.654,4.654,0,1,1-4.655-4.654,4.654,4.654,0,0,1,4.655,4.654" transform="translate(1050.674 3824.451)" fill="#f99e4b"/>
    <path id="Path_101" data-name="Path 101" d="M190.049,159.634h1.33v10.639h0a7.981,7.981,0,0,0,7.979,7.979h7.979V188.89h7.979V170.272H199.357V151.656h-9.308l9.308-15.957v-2.66a18.616,18.616,0,0,1,18.617-18.617h4.521a16.236,16.236,0,0,1,2.128.093v-7.979c-.7,0-1.41-.08-2.128-.08h-4.521a26.6,26.6,0,0,0-26.6,26.582v.506l-8.217,14.123a7.978,7.978,0,0,0,6.888,11.968Z" transform="translate(1127.469 3905.544)" fill="#f99e4b"/>
  </g>
</svg>
