<svg xmlns="http://www.w3.org/2000/svg" width="60" height="60" viewBox="0 0 60 60">
  <g id="dashcam" transform="translate(-705.919 -300.001)">
    <g id="Group_10800" data-name="Group 10800">
      <path id="Path_499" data-name="Path 499" d="M751.373,312.483a14.545,14.545,0,1,0,14.546,14.545A14.546,14.546,0,0,0,751.373,312.483Zm0,21.817a7.272,7.272,0,1,1,7.273-7.273A7.274,7.274,0,0,1,751.373,334.3Z" fill="#f99e4b"/>
      <path id="Path_500" data-name="Path 500" d="M751.373,322.179a4.788,4.788,0,0,0-1.272.189,2.459,2.459,0,0,1-1.909,3.927,2.3,2.3,0,0,1-1.489-.5,4.772,4.772,0,0,0-.178,1.23,4.848,4.848,0,1,0,4.848-4.848Z" fill="#f99e4b"/>
      <path id="Path_501" data-name="Path 501" d="M760.291,347.519a.791.791,0,0,0,.472-1.425,15.742,15.742,0,0,0-18.782,0,.791.791,0,0,0,.472,1.425Z" fill="#f99e4b"/>
    </g>
    <g id="Driver_Management_Solution" data-name="Driver Management Solution">
      <path id="Path_73" data-name="Path 73" d="M720.9,320.526A13.026,13.026,0,0,1,733.929,307.5h.092a3.58,3.58,0,0,0,3.745-3.406c0-.049,0-.1,0-.146v-.2A3.748,3.748,0,0,0,734.023,300h0A20.616,20.616,0,0,0,713.4,320.216l-6.12,9.184h0a7.728,7.728,0,0,0-1.143,6.214,7.5,7.5,0,0,0,7.264,5.623v5.623a7.5,7.5,0,0,0,7.5,7.5h3.749v1.874h0A3.748,3.748,0,0,0,728.381,360c.128,0,.257-.006.385-.018a3.861,3.861,0,0,0,3.384-3.908v-7.338a1.876,1.876,0,0,0-1.875-1.874h-7.5a1.873,1.873,0,0,1-1.875-1.873v-9.372a1.875,1.875,0,0,0-1.869-1.879h-5.624l7.5-11.245Z" fill="#00abbe"/>
    </g>
  </g>
</svg>
