<svg xmlns="http://www.w3.org/2000/svg" width="55.183" height="60" viewBox="0 0 55.183 60">
  <g id="Driver_Management_Solution" data-name="Driver Management Solution" transform="translate(-1885.357 -2099)">
    <g id="Group_23" data-name="Group 23" transform="translate(1914.495 2115.661)">
      <path id="Path_71" data-name="Path 71" d="M329.856,168H329a12.9,12.9,0,0,0-12.6,12.886c0,5.723,3.914,10.151,6.772,13.379l.548.624h0a7.588,7.588,0,0,0,11.412,0l.548-.624c2.851-3.235,6.765-7.663,6.765-13.379A12.893,12.893,0,0,0,329.856,168Zm1.151,23.3a2.1,2.1,0,0,1-3.159,0c-2.454-2.824-5.964-6.484-5.964-10.418a7.478,7.478,0,0,1,7.286-7.4h.507a7.477,7.477,0,0,1,7.286,7.4c0,3.934-3.509,7.594-5.956,10.418Z" transform="translate(-316.401 -167.997)" fill="#f99e4b"/>
      <path id="Path_72" data-name="Path 72" d="M405.883,254.743A2.742,2.742,0,1,1,403.142,252a2.742,2.742,0,0,1,2.741,2.741" transform="translate(-390.119 -241.72)" fill="#f99e4b"/>
    </g>
    <path id="Path_73" data-name="Path 73" d="M185.87,121.324A13.027,13.027,0,0,1,198.991,108.3a3.58,3.58,0,0,0,3.749-3.553v-.2a3.748,3.748,0,0,0-3.749-3.749,20.617,20.617,0,0,0-20.619,20.216l-6.12,9.185h0a7.732,7.732,0,0,0-1.143,6.214,7.5,7.5,0,0,0,7.264,5.623v5.624a7.5,7.5,0,0,0,7.5,7.5h3.749v1.874h0a3.748,3.748,0,0,0,4.114,3.749,3.861,3.861,0,0,0,3.384-3.908v-7.338a1.875,1.875,0,0,0-1.875-1.874h-7.5a1.875,1.875,0,0,1-1.875-1.874v-9.372A1.874,1.874,0,0,0,184,134.538h-5.623l7.5-11.246Z" transform="translate(1714.469 1998.201)" fill="#00abbe"/>
  </g>
</svg>
