<svg id="elm" xmlns="http://www.w3.org/2000/svg" xmlns:xlink="http://www.w3.org/1999/xlink" width="96.286" height="96.375" viewBox="0 0 96.286 96.375">
  <defs>
    <clipPath id="clip-path">
      <rect id="Rectangle_5861" data-name="Rectangle 5861" width="96.286" height="96.375" fill="none"/>
    </clipPath>
  </defs>
  <path id="Path_102" data-name="Path 102" d="M93.42,113.79l-10.247-5.916V96.042l10.247,5.915Z" transform="translate(-52.433 -60.545)" fill="#1a1818"/>
  <path id="Path_103" data-name="Path 103" d="M93.42,48.02,83.173,53.936V65.768L93.42,59.853Z" transform="translate(-52.433 -30.272)" fill="#1a1818"/>
  <path id="Path_104" data-name="Path 104" d="M121.145,0,110.9,5.916V17.748l10.247-5.917Z" transform="translate(-69.91)" fill="#1a1818"/>
  <path id="Path_105" data-name="Path 105" d="M37.971,48.02,27.724,53.936V65.768l10.247-5.915Z" transform="translate(-17.477 -30.272)" fill="#1a1818"/>
  <path id="Path_106" data-name="Path 106" d="M65.695,65.769,55.448,59.853V48.022l10.247,5.916Z" transform="translate(-34.954 -30.273)" fill="#434345"/>
  <path id="Path_107" data-name="Path 107" d="M176.593,65.769l-10.247-5.916V48.022l10.247,5.916Z" transform="translate(-104.865 -30.273)" fill="#6f7274"/>
  <path id="Path_108" data-name="Path 108" d="M0,133.97l10.247,5.916,10.247-5.916-10.247-5.916Z" transform="translate(0 -80.726)" fill="#525355"/>
  <path id="Path_109" data-name="Path 109" d="M55.449,133.97h0L65.7,139.887l10.247-5.917L65.7,128.054Z" transform="translate(-34.955 -80.726)" fill="#525355"/>
  <path id="Path_110" data-name="Path 110" d="M83.173,85.95h0L93.42,91.866l10.247-5.916L93.42,80.034Z" transform="translate(-52.432 -50.453)" fill="#cccdcf"/>
  <path id="Path_111" data-name="Path 111" d="M138.622,85.95h0l10.247,5.916,10.247-5.916-10.247-5.916Z" transform="translate(-87.388 -50.453)" fill="#cccdcf"/>
  <g id="Group_47" data-name="Group 47" transform="translate(0 0)">
    <g id="Group_46" data-name="Group 46" clip-path="url(#clip-path)">
      <path id="Path_112" data-name="Path 112" d="M101.3,163.127h-6.6a1.327,1.327,0,0,1-1.324-1.292v-8.251h6.637a1.321,1.321,0,0,1,1.289,1.325ZM87.508,148.007c0,1.981,0,12.331,0,15.119l-10.317,0a.343.343,0,0,0-.243.1L73.89,168.4c-.092.17-.123.242-.072.368a.331.331,0,0,0,.311.208h35.28a5.113,5.113,0,0,0,3.913-1.964,5.1,5.1,0,0,0,3.9,1.966h25.239a.335.335,0,0,0,.339-.33v-5.191a.333.333,0,0,0-.1-.232.358.358,0,0,0-.239-.1h-13.4v-8.205a1.335,1.335,0,0,1,1.3-1.338l9.011,0a.346.346,0,0,0,.245-.1l3.085-5.226c.092-.17.125-.242.073-.37a.339.339,0,0,0-.315-.212H128.829A5.573,5.573,0,0,0,123.163,153v10.128h-5.082V137.379a.333.333,0,0,0-.208-.311c-.127-.051-.2-.019-.368.073l-5.186,3.059a.345.345,0,0,0-.1.242v22.684h-5.079V152.943a5.524,5.524,0,0,0-5.618-5.265H87.841a.338.338,0,0,0-.333.329" transform="translate(-46.52 -86.393)" fill="#6d6f72"/>
      <path id="Path_113" data-name="Path 113" d="M198.454,234.109a.136.136,0,0,1,.144-.145h6.293a.137.137,0,0,1,.146.145v1.545a.137.137,0,0,1-.146.145h-4.228a.077.077,0,0,0-.087.086v1.949a.077.077,0,0,0,.087.086h3.522a.136.136,0,0,1,.143.145v1.529a.136.136,0,0,1-.143.145h-3.522a.077.077,0,0,0-.087.087v2.034a.077.077,0,0,0,.087.088h4.228a.136.136,0,0,1,.146.143v1.545a.137.137,0,0,1-.146.144H198.6a.136.136,0,0,1-.144-.144Z" transform="translate(-125.106 -147.492)" fill="#6d6f72"/>
      <path id="Path_114" data-name="Path 114" d="M222.529,243.866c-1.545,0-2.165-.679-2.165-2.223v-7.534a.137.137,0,0,1,.145-.145h1.732a.136.136,0,0,1,.144.145v7.376c0,.476.188.664.607.664h.3a.137.137,0,0,1,.145.145v1.429a.137.137,0,0,1-.145.145Z" transform="translate(-138.918 -147.491)" fill="#6d6f72"/>
      <path id="Path_115" data-name="Path 115" d="M240.861,248.334a.137.137,0,0,1-.145-.145v-4.013c0-.765-.375-1.271-1.1-1.271-.693,0-1.083.505-1.083,1.271v4.013a.136.136,0,0,1-.145.145H236.66a.136.136,0,0,1-.144-.145v-4.013c0-.765-.361-1.271-1.083-1.271-.693,0-1.1.505-1.1,1.271v4.013a.136.136,0,0,1-.144.145h-1.731a.137.137,0,0,1-.146-.145v-6.7a.138.138,0,0,1,.146-.146h1.731a.137.137,0,0,1,.144.146v.49h.014a2.444,2.444,0,0,1,3.681.086h.014a2.855,2.855,0,0,1,2.194-.88,2.341,2.341,0,0,1,2.5,2.6v4.4a.136.136,0,0,1-.144.145Z" transform="translate(-146.452 -152.046)" fill="#6d6f72"/>
    </g>
  </g>
</svg>
