<svg xmlns="http://www.w3.org/2000/svg" width="59.999" height="60" viewBox="0 0 59.999 60">
  <g id="Fleet_Management_Solution" data-name="Fleet Management Solution" transform="translate(-2011.266 -2047)">
    <path id="Path_67" data-name="Path 67" d="M406.05,127.989a4.865,4.865,0,0,0,3.684-1.678c3.469-4.013,7.565-8.971,7.565-14.259a11.25,11.25,0,0,0-10.875-11.25h-.749a11.25,11.25,0,0,0-10.875,11.25c0,5.288,4.1,10.247,7.565,14.259a4.864,4.864,0,0,0,3.684,1.678Zm0-19.687h0a3.749,3.749,0,1,1-2.652,1.1,3.752,3.752,0,0,1,2.652-1.1Z" transform="translate(1653.965 1946.198)" fill="#f99e4b"/>
    <path id="Path_68" data-name="Path 68" d="M273.5,289.352a3.75,3.75,0,1,1-3.75-3.75,3.75,3.75,0,0,1,3.75,3.75" transform="translate(1761.204 1792.335)" fill="#00abbe"/>
    <path id="Path_69" data-name="Path 69" d="M402.3,289.352a3.75,3.75,0,1,1-3.75-3.75,3.75,3.75,0,0,1,3.75,3.75" transform="translate(1653.966 1792.335)" fill="#00abbe"/>
    <path id="Path_70" data-name="Path 70" d="M226.344,153.2h-.084a3.749,3.749,0,0,0-3.656,4.219A82.571,82.571,0,0,1,223.3,168.1v3.853h-8.653l-1.659-4.462a4.687,4.687,0,0,0-4.4-3.037H193.007a4.687,4.687,0,0,0-4.4,3.037l-1.659,4.462H178.3v-1.977a83.185,83.185,0,0,1,8.8-37.247,3.75,3.75,0,0,1,3.338-2.025h6.45a3.863,3.863,0,0,0,3.909-3.384,3.75,3.75,0,0,0-3.75-4.116h-6.619a11.175,11.175,0,0,0-10.012,6.112,90.677,90.677,0,0,0-9.619,40.66v3.853a5.624,5.624,0,0,0,5.625,5.625h11.822a5.625,5.625,0,0,0,5.269-3.647l1.444-3.853h11.681l1.444,3.853a5.625,5.625,0,0,0,5.269,3.647h11.822a5.624,5.624,0,0,0,5.625-5.625V168.1a88.7,88.7,0,0,0-.787-11.69,3.751,3.751,0,0,0-3.665-3.206Z" transform="translate(1840.469 1927.55)" fill="#00abbe"/>
  </g>
</svg>
