<svg xmlns="http://www.w3.org/2000/svg" width="60.025" height="59.998" viewBox="0 0 60.025 59.998">
  <g id="Fuel_Management_Solution" data-name="Fuel Management Solution" transform="translate(-2000.107 -2404)">
    <path id="Path_79" data-name="Path 79" d="M234.3,108.479a39.186,39.186,0,0,1,21.3,8.85l-7.078,7.078,5.306,5.306,7.078-7.078a39.2,39.2,0,0,1,8.841,21.291h-7.321v7.5h15v-3.75A46.93,46.93,0,0,0,230.551,100.8H226.8v15h7.5Z" transform="translate(1782.708 2303.198)" fill="#00abbe"/>
    <path id="Path_80" data-name="Path 80" d="M181.915,305.337a11.249,11.249,0,0,0,10.144-16.087l9.543-9.543L196.3,274.4l-9.543,9.543a11.25,11.25,0,1,0-4.837,21.393Zm0-15h0a3.749,3.749,0,1,1-2.652,1.1,3.752,3.752,0,0,1,2.652-1.1Z" transform="translate(1829.469 2158.661)" fill="#f99e4b"/>
  </g>
</svg>
