<svg xmlns="http://www.w3.org/2000/svg" width="51.431" height="60" viewBox="0 0 51.431 60">
  <g id="hajj" transform="translate(-202.873 -320.309)">
    <path id="Path_531" data-name="Path 531" d="M252.995,331.193h0L229.476,320.5a2.139,2.139,0,0,0-1.775,0l-23.519,10.691h0a2.234,2.234,0,0,0-1.309,1.974v5.246L228.588,350.1,254.3,338.413v-5.246a2.234,2.234,0,0,0-1.308-1.974Zm-24.407,10.334-18.392-8.36,18.392-8.36,18.393,8.36Z" fill="#f99e4b"/>
    <path id="Path_532" data-name="Path 532" d="M227.7,354.4,202.874,343.12v24.333a2.2,2.2,0,0,0,1.308,1.974l23.519,10.69c.008,0,.017,0,.025.006a2.082,2.082,0,0,0,1.724,0c.008,0,.017,0,.025-.006l23.519-10.69h0a2.2,2.2,0,0,0,1.309-1.974V343.12L229.477,354.4a2.141,2.141,0,0,1-1.774,0Zm-9.827,16.747-8.572-3.9V354.868a.306.306,0,0,1,.432-.278l7.513,3.419a1.075,1.075,0,0,1,.627.976Z" fill="#00abbe"/>
  </g>
</svg>
