<svg id="insta" xmlns="http://www.w3.org/2000/svg" width="27.628" height="27.674" viewBox="0 0 27.628 27.674">
  <g id="insta-dark-ic" transform="translate(-0.001 0)">
    <path id="Path_320" data-name="Path 320" d="M30.536,11.149a10.018,10.018,0,0,0-.643-3.4,7.073,7.073,0,0,0-4.039-4.04A10.135,10.135,0,0,0,22.5,3.065c-1.476-.066-1.944-.084-5.69-.084s-4.227,0-5.692.084a10.135,10.135,0,0,0-3.352.644,7.068,7.068,0,0,0-4.039,4.04A10.055,10.055,0,0,0,3.083,11.1C3.017,12.579,3,13.047,3,16.793s0,4.225.086,5.692a10.119,10.119,0,0,0,.643,3.355,7.073,7.073,0,0,0,4.041,4.038,10.1,10.1,0,0,0,3.352.69c1.477.066,1.945.086,5.692.086s4.227,0,5.692-.086a10.11,10.11,0,0,0,3.354-.643,7.08,7.08,0,0,0,4.039-4.04,10.1,10.1,0,0,0,.643-3.355c.066-1.476.086-1.944.086-5.692S30.621,12.617,30.536,11.149ZM16.8,23.878a7.093,7.093,0,1,1,7.093-7.093A7.091,7.091,0,0,1,16.8,23.878Zm7.375-12.794a1.653,1.653,0,1,1,1.652-1.654A1.652,1.652,0,0,1,24.175,11.085Z" transform="translate(-2.996 -2.981)" fill="#f99e4b"/>
    <ellipse id="Ellipse_20" data-name="Ellipse 20" cx="4.607" cy="4.607" rx="4.607" ry="4.607" transform="translate(9.197 9.196)" fill="#f99e4b"/>
  </g>
</svg>
