<svg xmlns="http://www.w3.org/2000/svg" width="63.889" height="63.301" viewBox="0 0 63.889 63.301">
  <g id="International_mobility-ic" data-name="International mobility-ic" transform="translate(-134.505 -27.019)">
    <g id="Group_10810" data-name="Group 10810" transform="translate(134.505 27.019)">
      <path id="Path_555" data-name="Path 555" d="M165.246,28.218a1.216,1.216,0,0,1,2.433,0v7.006a1.216,1.216,0,0,1-2.433,0Zm17.113,4.351a1.217,1.217,0,0,1,2.042,1.325l-3.816,5.873a1.216,1.216,0,0,1-2.04-1.324l3.814-5.874Zm11.914,12.822a1.217,1.217,0,0,1,1,2.219l-6.384,2.882a1.217,1.217,0,0,1-1-2.218Zm3.1,17.227a1.217,1.217,0,0,1-.355,2.407L190.086,64a1.216,1.216,0,0,1,.355-2.406Zm-6.7,16.169a1.217,1.217,0,0,1-1.6,1.834l-5.279-4.6a1.217,1.217,0,0,1,1.6-1.834ZM176.3,88.773a1.217,1.217,0,0,1-2.337.679l-1.953-6.726a1.217,1.217,0,0,1,2.337-.679Zm-17.49.641a1.217,1.217,0,0,1-2.334-.692l1.989-6.715a1.217,1.217,0,0,1,2.334.692ZM143.74,80.5a1.216,1.216,0,0,1-1.588-1.842l5.3-4.577a1.216,1.216,0,0,1,1.589,1.841Zm-7.862-15.638a1.217,1.217,0,0,1-.343-2.409l6.935-.987a1.217,1.217,0,0,1,.343,2.41Zm1.832-17.406a1.216,1.216,0,0,1,1.012-2.212l6.369,2.915a1.217,1.217,0,0,1-1.013,2.214ZM148.656,33.8a1.217,1.217,0,0,1,2.047-1.314l3.783,5.893a1.216,1.216,0,0,1-2.047,1.314Z" transform="translate(-134.505 -27.019)" fill="#00abbe"/>
    </g>
    <path id="Path_556" data-name="Path 556" d="M248.878,119.48a19.648,19.648,0,1,0,19.651,19.648A19.648,19.648,0,0,0,248.878,119.48Zm-5.842,3.109a19.671,19.671,0,0,0-3.576,7.119,19.644,19.644,0,0,0-7.119,3.578A17.577,17.577,0,0,1,243.036,122.589Zm-4.172,9.522a35.05,35.05,0,0,0-.675,5.96h-6.706C232.276,135.065,236.09,133.078,238.864,132.111Zm-.675,8.072a35.065,35.065,0,0,0,.675,5.96c-2.774-.968-6.588-2.956-7.381-5.96Zm-5.848,4.785a19.633,19.633,0,0,0,7.119,3.578,19.687,19.687,0,0,0,3.576,7.121A17.586,17.586,0,0,1,232.34,144.968Zm15.481,11.554c-3.005-.793-4.99-4.607-5.959-7.381a34.9,34.9,0,0,0,5.959.675Zm0-8.821a31.927,31.927,0,0,1-6.641-.876,31.9,31.9,0,0,1-.875-6.641h7.516Zm0-9.63H240.3a32.005,32.005,0,0,1,.875-6.643,31.95,31.95,0,0,1,6.643-.876Zm0-9.632a34.771,34.771,0,0,0-5.959.675c.968-2.776,2.953-6.59,5.959-7.381Zm17.6,4.847a19.674,19.674,0,0,0-7.119-3.578,19.7,19.7,0,0,0-3.578-7.119A17.586,17.586,0,0,1,265.417,133.286Zm.858,4.785h-6.706a34.9,34.9,0,0,0-.676-5.96C261.666,133.078,265.482,135.066,266.275,138.071Zm-16.34-16.339c3.005.792,4.992,4.606,5.96,7.381a34.787,34.787,0,0,0-5.96-.675Zm0,8.82a31.95,31.95,0,0,1,6.643.876,31.917,31.917,0,0,1,.875,6.643h-7.518Zm7.518,9.631a31.9,31.9,0,0,1-.874,6.641,31.963,31.963,0,0,1-6.643.876v-7.518Zm-7.518,16.339v-6.706a34.918,34.918,0,0,0,5.96-.675C254.926,151.916,252.94,155.729,249.935,156.522Zm4.785-.855a19.711,19.711,0,0,0,3.578-7.121,19.653,19.653,0,0,0,7.119-3.578A17.588,17.588,0,0,1,254.72,155.667Zm4.172-9.523a34.819,34.819,0,0,0,.675-5.96h6.706C265.482,143.189,261.666,145.175,258.892,146.143Z" transform="translate(-82.428 -80.458)" fill="#f99e4b"/>
  </g>
</svg>
