<svg xmlns="http://www.w3.org/2000/svg" width="45.158" height="54.881" viewBox="0 0 45.158 54.881">
  <g id="Job_Security-ic" data-name="Job Security-ic" transform="translate(-1366.192 -284.348)">
    <path id="Path_535" data-name="Path 535" d="M207.225,146.492a8.754,8.754,0,0,0,3.763.784,9.536,9.536,0,0,0,3.607-.705l.392-.157a30.882,30.882,0,0,0,18.894-28.459v-15.21a2.516,2.516,0,0,0-.784-1.725l-.313-.313a31.984,31.984,0,0,0-43.355.313,2.432,2.432,0,0,0-.705,1.725v15.523a30.811,30.811,0,0,0,18.5,28.224Zm-13.8-42.649a27.185,27.185,0,0,1,35.75,0v14.19A26.07,26.07,0,0,1,213.183,142.1l-.392.078a4.988,4.988,0,0,1-3.685,0,26.181,26.181,0,0,1-15.68-23.912Z" transform="translate(1177.469 191.953)" fill="#f99e4b"/>
    <path id="Path_536" data-name="Path 536" d="M277.99,248.409c.078.086.078.172.157.172.078.086.157.086.235.172a.268.268,0,0,1,.157.086.439.439,0,0,0,.313.085c.078,0,.078,0,.157.086.157,0,.313.086.469.086h.548a.272.272,0,0,0,.235-.086c.078,0,.078-.086.157-.086s.157-.085.235-.085.078-.086.157-.086c.078-.086.157-.086.157-.172l12.513-11.144a2.655,2.655,0,0,0,.313-3.6,2.144,2.144,0,0,0-3.285-.343l-10.636,9.429-3.91-4.972a2.144,2.144,0,0,0-3.285-.257,2.662,2.662,0,0,0-.235,3.6l5.4,6.943c.078,0,.078.086.156.172Z" transform="translate(1106.011 70.454)" fill="#00abbe"/>
  </g>
</svg>
