<svg xmlns="http://www.w3.org/2000/svg" width="64.404" height="64.412" viewBox="0 0 64.404 64.412">
  <path id="like" d="M207.034,100.8h-4.307l-2.385,3.583-13.718,20.571H170.8v40.258h44.9a13.023,13.023,0,0,0,12.147-8.222l6.3-15.761h0a14.8,14.8,0,0,0-13.94-20.3h-1.9a40.864,40.864,0,0,0,.805-8.052A12.078,12.078,0,0,0,207.035,100.8Zm-28.18,56.361V133.005h8.052V157.16Zm41.354-28.18A6.934,6.934,0,0,1,226.036,132a6.773,6.773,0,0,1,.644,6.24L220.379,154a5.031,5.031,0,0,1-4.68,3.16H194.956V126.966l12.077-18.116a4.026,4.026,0,0,1,4.026,4.026,32.74,32.74,0,0,1-1.007,7.931l-2.013,8.172Z" transform="translate(-170.803 -100.799)" fill="#f99e4b"/>
</svg>
