<svg xmlns="http://www.w3.org/2000/svg" width="23.37" height="23.363" viewBox="0 0 23.37 23.363">
  <path id="mail" d="M182.394,100.795a11.661,11.661,0,0,0-10.663,16.427l-.913,3.2a2.92,2.92,0,0,0,3.61,3.61l3.22-.9a11.557,11.557,0,0,0,8.612.365,1.42,1.42,0,0,0,.96-1.332,1.394,1.394,0,0,0-1.957-1.409,8.7,8.7,0,0,1-6.713-.42,1.789,1.789,0,0,0-.792-.193H177.7a1.7,1.7,0,0,0-.471.066l-3.6,1.029,1.029-3.6h0a1.7,1.7,0,0,0,.066-.471v-.051a1.788,1.788,0,0,0-.193-.792,8.664,8.664,0,0,1-.9-3.844,8.763,8.763,0,0,1,17.522-.365v1.76a1.5,1.5,0,0,1-1.314,1.526,1.46,1.46,0,0,1-1.606-1.46v-1.318a6.108,6.108,0,0,0-5.381-5.983,5.841,5.841,0,1,0,3.5,10.108,4.382,4.382,0,0,0,3.45,1.573,4.472,4.472,0,0,0,4.275-4.519v-1.687a11.7,11.7,0,0,0-11.682-11.317Zm0,14.6a2.92,2.92,0,1,1,2.065-.855A2.921,2.921,0,0,1,182.394,115.4Z" transform="translate(-170.706 -100.794)" fill="#f99e4b"/>
</svg>
