<svg xmlns="http://www.w3.org/2000/svg" width="23.37" height="27.953" viewBox="0 0 23.37 27.953">
  <g id="map" transform="translate(-1003.434 -4251.753)">
    <path id="Path_445" data-name="Path 445" d="M210.483,100.8A11.728,11.728,0,0,0,198.8,112.546c0,9.495,10.387,15.476,10.819,15.727l.865.48.865-.48c.433-.251,10.819-6.232,10.819-15.727A11.728,11.728,0,0,0,210.483,100.8Zm0,23.92c-2.259-1.515-8.223-6.094-8.223-12.174a8.223,8.223,0,1,1,16.445,0c0,6.081-5.964,10.659-8.223,12.174Z" transform="translate(804.636 4150.953)" fill="#f99e4b"/>
    <path id="Path_446" data-name="Path 446" d="M316.861,215.83a3.029,3.029,0,1,1-3.029-3.029,3.029,3.029,0,0,1,3.029,3.029" transform="translate(701.288 4047.608)" fill="#00abbe"/>
  </g>
</svg>
