<svg xmlns="http://www.w3.org/2000/svg" width="53.514" height="55.662" viewBox="0 0 53.514 55.662">
  <g id="Mentorship-ic" transform="translate(-1033.031 -2005)">
    <path id="Path_546" data-name="Path 546" d="M279.487,269.086a18.517,18.517,0,0,0-.452-25.486,23.886,23.886,0,0,1-23.9,20.965H249.2a18.536,18.536,0,0,0,16.727,10.567l20.174-.056Z" transform="translate(800.446 1785.53)" fill="#00abbe"/>
    <path id="Path_547" data-name="Path 547" d="M107.787,4.478A21.2,21.2,0,0,0,92.134,40.023L84.562,46.8l23.112.056a21.191,21.191,0,1,0,.113-42.382ZM115.7,23.07l-5.877,6.894-5.029-3L99.65,33.581l-3.278-1.526,7.516-9.72,5.142,3.051,3.5-4.069-2.882-1.582,8.137-3.278,1.017,8.363Z" transform="translate(948.469 2000.522)" fill="#f99e4b"/>
  </g>
</svg>
