<svg xmlns="http://www.w3.org/2000/svg" width="30.042" height="24.667" viewBox="0 0 30.042 24.667">
  <g id="menu" transform="translate(-3.479 -4)">
    <path id="Path_399" data-name="Path 399" d="M25.458,14.083H11.542a1.542,1.542,0,1,1,0-3.083H25.458a1.542,1.542,0,1,1,0,3.083Z" transform="translate(0 3.792)" fill="#fff"/>
    <path id="Path_400" data-name="Path 400" d="M29.5,7.083H2.542A1.542,1.542,0,0,1,2.542,4H29.5a1.542,1.542,0,1,1,0,3.083Z" transform="translate(2.479)" fill="#fff"/>
    <path id="Path_401" data-name="Path 401" d="M18.5,21.083H-8.458A1.541,1.541,0,0,1-10,19.542,1.541,1.541,0,0,1-8.458,18H18.5a1.542,1.542,0,0,1,0,3.083Z" transform="translate(13.479 7.583)" fill="#fff"/>
  </g>
</svg>
