<svg xmlns="http://www.w3.org/2000/svg" width="23.37" height="31.16" viewBox="0 0 23.37 31.16">
  <g id="mobile" transform="translate(-346.068 -4365)">
    <path id="Path_442" data-name="Path 442" d="M233.127,100.8H221.443a5.842,5.842,0,0,0-5.843,5.842v19.475a5.842,5.842,0,0,0,5.842,5.842h11.685a5.842,5.842,0,0,0,5.842-5.842V106.642a5.842,5.842,0,0,0-5.842-5.842Zm1.947,25.317h0a1.947,1.947,0,0,1-1.948,1.947H221.442a1.947,1.947,0,0,1-1.948-1.947V106.642a1.947,1.947,0,0,1,1.948-1.947h11.685a1.947,1.947,0,0,1,1.948,1.947Z" transform="translate(130.469 4264.2)" fill="#f99e4b"/>
    <path id="Path_443" data-name="Path 443" d="M331.5,349.146a1.947,1.947,0,1,1-1.947-1.948,1.947,1.947,0,0,1,1.947,1.948" transform="translate(28.202 4039.224)" fill="#00abbe"/>
  </g>
</svg>
