<svg xmlns="http://www.w3.org/2000/svg" width="59.998" height="59.998" viewBox="0 0 59.998 59.998">
  <g id="Oil_Tracking_Solution" data-name="Oil Tracking Solution" transform="translate(-1122 -1691.5)">
    <g id="Group_32" data-name="Group 32" transform="translate(1122 1691.5)">
      <path id="Path_55" data-name="Path 55" d="M435.86,110.171a9.375,9.375,0,0,0-9.375-9.375H421.02a3.862,3.862,0,0,0-3.909,3.384,3.751,3.751,0,0,0,3.75,4.116h5.624a1.873,1.873,0,0,1,1.875,1.875v5.465a3.862,3.862,0,0,0,3.385,3.909,3.75,3.75,0,0,0,4.115-3.75Z" transform="translate(-375.862 -100.795)" fill="#00abbe"/>
      <path id="Path_56" data-name="Path 56" d="M170.8,115.641a3.862,3.862,0,0,0,3.384,3.909,3.751,3.751,0,0,0,4.116-3.75v-5.624a1.874,1.874,0,0,1,1.875-1.875h5.465a3.862,3.862,0,0,0,3.909-3.385,3.75,3.75,0,0,0-3.75-4.115h-5.624a9.375,9.375,0,0,0-9.375,9.375Z" transform="translate(-170.795 -100.8)" fill="#00abbe"/>
      <path id="Path_57" data-name="Path 57" d="M170.8,356.485a9.375,9.375,0,0,0,9.375,9.375H185.8a3.75,3.75,0,0,0,3.75-4.115,3.862,3.862,0,0,0-3.909-3.385h-5.465a1.874,1.874,0,0,1-1.875-1.875V351.02a3.862,3.862,0,0,0-3.385-3.909,3.75,3.75,0,0,0-4.115,3.75Z" transform="translate(-170.799 -305.862)" fill="#00abbe"/>
      <path id="Path_58" data-name="Path 58" d="M435.86,350.859a3.75,3.75,0,0,0-4.115-3.75,3.862,3.862,0,0,0-3.385,3.909v5.465a1.873,1.873,0,0,1-1.875,1.875H421.02a3.862,3.862,0,0,0-3.909,3.385,3.75,3.75,0,0,0,3.75,4.115h5.624a9.375,9.375,0,0,0,9.375-9.375Z" transform="translate(-375.862 -305.86)" fill="#00abbe"/>
    </g>
    <path id="Path_81" data-name="Path 81" d="M297.844,117.587c0-5.829-5.08-11.659-8.913-15.239h0a6.224,6.224,0,0,0-8.435,0c-3.814,3.581-8.894,9.41-8.894,15.239a13.121,13.121,0,1,0,26.241,0Zm-18.744,0c0-2.39,2.624-5.923,5.624-8.9,2.971,2.961,5.624,6.56,5.624,8.9a5.624,5.624,0,0,1-11.247,0Z" transform="translate(867.276 1605.794)" fill="#f99e4b"/>
  </g>
</svg>
