<svg id="pepsi" xmlns="http://www.w3.org/2000/svg" xmlns:xlink="http://www.w3.org/1999/xlink" width="168.152" height="52.643" viewBox="0 0 168.152 52.643">
  <defs>
    <clipPath id="clip-path">
      <rect id="Rectangle_5863" data-name="Rectangle 5863" width="168.152" height="52.643" fill="none"/>
    </clipPath>
  </defs>
  <g id="Group_49" data-name="Group 49" clip-path="url(#clip-path)">
    <path id="Path_116" data-name="Path 116" d="M167.387,35.186h0a9.139,9.139,0,0,0-.122-1.041,12.575,12.575,0,0,0-.428-2.081,11.4,11.4,0,0,0-10.9-8.264,12.887,12.887,0,0,0-1.53.122,11.653,11.653,0,0,0-9.978,13.283,11.357,11.357,0,0,0,11.447,10.1,12.887,12.887,0,0,0,1.53-.122,11.644,11.644,0,0,0,7.958-4.285.476.476,0,0,0,.122-.49.778.778,0,0,0-.245-.428,25.134,25.134,0,0,0-2.265-1.163c-.184-.122-.367-.184-.428-.245a.823.823,0,0,0-.49-.122.632.632,0,0,0-.49.245,7.6,7.6,0,0,1-4.713,2.571,5.6,5.6,0,0,1-.979.061,7.747,7.747,0,0,1-7.223-4.958v-.061l.061-.061a10.044,10.044,0,0,1,3.8-.735,3.49,3.49,0,0,1,.8.061c.612.061,1.224.122,1.9.184a25.659,25.659,0,0,0,3.979.306,19.912,19.912,0,0,0,2.693-.184,13.842,13.842,0,0,0,5.019-1.714c.551-.245.49-.49.49-.979m-4.04-1.469a14.655,14.655,0,0,1-2.387.49,12.2,12.2,0,0,1-1.653.122,28.818,28.818,0,0,1-3.244-.184H156c-1.041-.061-1.959-.122-2.877-.122a16.287,16.287,0,0,0-1.836.122,12.5,12.5,0,0,0-3.061.735v-.122a7.859,7.859,0,0,1,6.733-6.856,5.266,5.266,0,0,1,.979-.061,8.152,8.152,0,0,1,7.468,5.815v.061Z" transform="translate(-55.98 -9.231)" fill="#454545"/>
    <rect id="Rectangle_5862" data-name="Rectangle 5862" width="4.04" height="22.159" rx="0.9" transform="translate(163.439 15.364)" fill="#454545"/>
    <path id="Path_117" data-name="Path 117" d="M268.593,12.8a2.693,2.693,0,1,0,2.693,2.693,2.759,2.759,0,0,0-2.693-2.693" transform="translate(-103.134 -4.965)" fill="#454545"/>
    <path id="Path_118" data-name="Path 118" d="M198.669,47.306h.551A10.954,10.954,0,0,0,207.178,44a11.7,11.7,0,0,0,3.306-8.325A11.655,11.655,0,0,0,198.792,23.8a11.511,11.511,0,0,0-11.2,8.692,25.379,25.379,0,0,0-.49,5.387V54.407a.549.549,0,0,0,.551.551h2.938a.549.549,0,0,0,.551-.551V44l.184.122a11.4,11.4,0,0,0,7.346,3.183m.122-19.466a7.562,7.562,0,0,1,7.468,7.9c0,4.469-3.122,7.774-7.284,7.774a7.845,7.845,0,0,1-5.448-2.081,7.566,7.566,0,0,1-2.265-5.57c.061-4.469,3.428-8.019,7.529-8.019" transform="translate(-72.57 -9.231)" fill="#454545"/>
    <path id="Path_119" data-name="Path 119" d="M112.369,47.306h.551A10.954,10.954,0,0,0,120.878,44a11.7,11.7,0,0,0,3.305-8.325A11.655,11.655,0,0,0,112.492,23.8a11.511,11.511,0,0,0-11.2,8.692,25.377,25.377,0,0,0-.49,5.387V54.407a.549.549,0,0,0,.551.551h2.938a.549.549,0,0,0,.551-.551V44l.122.122a11.727,11.727,0,0,0,7.407,3.183m.122-19.466a7.562,7.562,0,0,1,7.468,7.9c0,4.469-3.122,7.774-7.284,7.774a7.845,7.845,0,0,1-5.448-2.081,7.566,7.566,0,0,1-2.265-5.57c.061-4.469,3.428-8.019,7.529-8.019" transform="translate(-39.097 -9.231)" fill="#454545"/>
    <path id="Path_120" data-name="Path 120" d="M229.845,43.594a12.732,12.732,0,0,0,9,3.673h.122c6.244-.061,9.06-3.489,9.06-6.856,0-4.652-4.407-5.938-5.754-6.244-.428-.061-.857-.184-1.347-.245a27.772,27.772,0,0,1-3.244-.735c-.735-.184-3.061-.979-3.061-2.755,0-1.959,2.142-3,4.162-3a7.066,7.066,0,0,1,4.9,1.714.912.912,0,0,0,.551.245.987.987,0,0,0,.551-.184,23.281,23.281,0,0,0,2.02-1.775.7.7,0,0,0,.184-.49.7.7,0,0,0-.306-.551A11.792,11.792,0,0,0,238.66,23.7c-4.713,0-8.264,3-8.264,7.04,0,3.183,2.632,5.448,7.346,6.366l2.938.551c1.959.367,3.061,1.408,3,2.816s-1.775,2.877-4.591,2.877a8.949,8.949,0,0,1-6.06-2.449.636.636,0,0,0-.49-.245.661.661,0,0,0-.428.184c-.184.122-2.142,1.714-2.387,1.9a.337.337,0,0,0-.122.306.776.776,0,0,0,.245.551" transform="translate(-89.055 -9.193)" fill="#454545"/>
    <path id="Path_121" data-name="Path 121" d="M44.93,44.93a26.317,26.317,0,1,1,0-37.218,26.305,26.305,0,0,1,0,37.218" transform="translate(0 0)" fill="#fff"/>
    <path id="Path_122" data-name="Path 122" d="M51.856,20.8a18.046,18.046,0,0,1,.8,5.142,17.617,17.617,0,0,1-7.223,14.14C37.9,45.653,26.881,45.653,11.7,50.427A24.95,24.95,0,0,0,55.835,34.451,25.142,25.142,0,0,0,51.856,20.8" transform="translate(-4.538 -8.068)" fill="#454545"/>
    <path id="Path_123" data-name="Path 123" d="M42.172,7.119A24.978,24.978,0,0,0,7.1,41.95,51.88,51.88,0,0,0,42.172,7.119" transform="translate(-0.853 -0.815)" fill="#5d5d5d"/>
  </g>
</svg>
