<svg id="saudi-made-arabic-logo-arb" xmlns="http://www.w3.org/2000/svg" xmlns:xlink="http://www.w3.org/1999/xlink" width="144.175" height="45.521" viewBox="0 0 144.175 45.521">
  <defs>
    <clipPath id="clip-path">
      <rect id="Rectangle_5955" data-name="Rectangle 5955" width="144.175" height="45.521" fill="none"/>
    </clipPath>
  </defs>
  <rect id="Rectangle_5948" data-name="Rectangle 5948" width="2.93" height="2.742" transform="translate(2.646 0)" fill="#fff"/>
  <rect id="Rectangle_5949" data-name="Rectangle 5949" width="2.93" height="2.742" transform="translate(7.089 0)" fill="#fff"/>
  <g id="Group_10788" data-name="Group 10788">
    <g id="Group_10787" data-name="Group 10787" clip-path="url(#clip-path)">
      <path id="Path_475" data-name="Path 475" d="M4.655,29.433A3.716,3.716,0,0,0,8.01,28.015a4.028,4.028,0,0,0,3.969,2.907H32.522V27.755H27.041a2.343,2.343,0,0,1-1.324-2.434,2.885,2.885,0,0,1,.5-1.747,1.721,1.721,0,0,1,1.536-.8,1.835,1.835,0,0,1,1.89,1.395l2.716-1.252a4.876,4.876,0,0,0-4.537-3,5.031,5.031,0,0,0-3.85,1.63,5.656,5.656,0,0,0-1.489,3.946,6.619,6.619,0,0,0,.472,2.268H13.609a2.149,2.149,0,0,1-2.41-2.409V17.9c-4.206,0-6.309,0-6.309.023C1.772,17.926,0,20.194,0,23.715c0,3.261,1.819,5.718,4.655,5.718m.969-9.1H7.8v3.119c0,1.937-.851,3.238-2.245,3.238-1.323,0-2.268-1.372-2.268-3.024,0-1.843.993-3.332,2.339-3.332" transform="translate(0 -12.964)" fill="#fff"/>
      <path id="Path_476" data-name="Path 476" d="M133.852,25.094h49.731c.071-.733.119-1.464.119-2.174,0-5.339-2.268-8.577-6.5-8.577-2.646,0-5.41,1.606-7.513,4.325V15.525h-3.309v4.134c0,1.7-.591,2.268-1.678,2.268h-5.862a7.017,7.017,0,0,0,.4-2.386v-5.15h-3.33v5.268c0,1.512-.568,2.268-1.678,2.268H132.883c-2.434,0-2.836-.85-2.836-2.457V9.855h-3.308V21.2c0,2.434,1.465,3.9,3.993,3.9h3.12Zm43.115-7.869c2.08,0,3.286,1.843,3.286,4.277l-.025.425h-9.687c1.82-3.119,3.992-4.7,6.426-4.7" transform="translate(-91.777 -7.136)" fill="#fff"/>
      <rect id="Rectangle_5950" data-name="Rectangle 5950" width="2.953" height="2.716" transform="translate(64.253 2.742)" fill="#fff"/>
      <rect id="Rectangle_5951" data-name="Rectangle 5951" width="2.93" height="2.742" transform="translate(3.568 23.641)" fill="#fff"/>
      <rect id="Rectangle_5952" data-name="Rectangle 5952" width="2.93" height="2.742" transform="translate(8.01 23.641)" fill="#fff"/>
      <path id="Path_477" data-name="Path 477" d="M21.777,111.139c0,1.535-.567,2.314-1.678,2.314H16.95a2.148,2.148,0,0,1-2.41-2.409V103.6c-4.206,0-6.309,0-6.309.023-3.119,0-4.891,2.268-4.891,5.789,0,3.261,1.819,5.718,4.655,5.718a3.716,3.716,0,0,0,3.355-1.418,4.028,4.028,0,0,0,3.969,2.907h5.49a3.929,3.929,0,0,0,3.237-1.441,4.728,4.728,0,0,0,1.04-3.119v-6.143H21.777Zm-10.64-1.985c0,1.937-.851,3.238-2.245,3.238-1.322,0-2.268-1.372-2.268-3.024,0-1.843.993-3.332,2.339-3.332h2.174Z" transform="translate(-2.419 -75.021)" fill="#fff"/>
      <rect id="Rectangle_5953" data-name="Rectangle 5953" width="2.953" height="2.742" transform="translate(19.501 42.779)" fill="#fff"/>
      <rect id="Rectangle_5954" data-name="Rectangle 5954" width="2.93" height="2.742" transform="translate(15.059 42.779)" fill="#fff"/>
      <path id="Path_478" data-name="Path 478" d="M97.227,112.445A14.845,14.845,0,0,0,92.809,112v2.765c4.206,0,6,1.464,6,4.771H90.234V122.7h11.885v-3.19a6.865,6.865,0,0,0-4.892-7.065" transform="translate(-65.342 -81.101)" fill="#fff"/>
      <path id="Path_479" data-name="Path 479" d="M191.149,110.447v5.41c0,1.418-.567,2.126-1.678,2.126h-2.1a6.921,6.921,0,0,0,.4-2.386v-5.15h-3.309v5.41c0,1.418-.566,2.126-1.678,2.126h-2.1a6.928,6.928,0,0,0,.4-2.386v-5.15h-3.332v5.268a3.31,3.31,0,0,1-.14,1.23,1.516,1.516,0,0,1-1.537,1.039h-7.1a2.471,2.471,0,0,1-1.772-.591,12.207,12.207,0,0,0,2.719-2.434,10.337,10.337,0,0,0,1.724-2.505,11.751,11.751,0,0,0-7.3-2.6,12.743,12.743,0,0,0-6.545,1.913v2.718a8.357,8.357,0,0,1,2.884,1.181,6.35,6.35,0,0,1,1.8,1.512,5.737,5.737,0,0,1-3.071.8H152v-2.149a5.159,5.159,0,0,0-5.244-5.412,5.1,5.1,0,0,0-5.364,5.341,5.2,5.2,0,0,0,5.364,5.387,8.172,8.172,0,0,0,2.031-.142c-.26.922-1.016,1.395-2.292,1.395h-.283v2.646h.354q4.821,0,5.388-3.9h7.5a9.841,9.841,0,0,0,2.93-.473,6.721,6.721,0,0,0,2.22-1.181,4.935,4.935,0,0,0,3.663,1.654h21.32a4.631,4.631,0,0,0,3.167-1.252,5.5,5.5,0,0,0,1.726-4.323v-5.127ZM148.7,117.983h-1.914a2.124,2.124,0,0,1-2.031-2.362c0-1.252.662-2.22,1.913-2.22a2.05,2.05,0,0,1,2.033,2.291Zm17.777-3.5a6.218,6.218,0,0,1-1.537,1.087,8.708,8.708,0,0,0-1.464-1.418,9.029,9.029,0,0,0-1.7-.945,6.348,6.348,0,0,1,2.811-.662,6.522,6.522,0,0,1,2.978.779,5.3,5.3,0,0,1-1.087,1.158" transform="translate(-102.39 -79.551)" fill="#fff"/>
      <path id="Path_480" data-name="Path 480" d="M357.641,45.521h45.516V0H357.641ZM391.4,21.4a59.78,59.78,0,0,1,3.85,5.64q-1.269,2.219-2.841,4.748a73.858,73.858,0,0,0-4.244-6.132c-1.371-1.8-4.884-5.825-4.938-5.884,0,.079,0,17.568.009,19.217l-.009,0c0,.006,0,.015,0,.021h-5.693c.011-1.65.006-19.156.009-19.236-.053.058-3.566,4.08-4.938,5.884a73.8,73.8,0,0,0-4.244,6.132q-1.571-2.528-2.841-4.748a59.764,59.764,0,0,1,3.849-5.64c1.092-1.438,3.735-4.425,4.4-5.168a38.213,38.213,0,0,0-4.922,1.224A25.9,25.9,0,0,0,366,18.573c-.6.28-.918.46-.918.46a30.473,30.473,0,0,1,1.342-4.134s.3-.213.863-.543a20.105,20.105,0,0,1,2.658-1.289,27.27,27.27,0,0,1,4.569-1.357c-.05-.037-1.174-.942-1.616-1.227-2.045-1.321-2.85-.894-2.85-.894a15.492,15.492,0,0,1,3.064-1.751,1.884,1.884,0,0,1,.466-.166,3.7,3.7,0,0,1,1.529.011,22.183,22.183,0,0,1,2.994,1.2c0-.033.106-1.018.142-1.367.106-1.022.33-.959.51-.975h3.27c.179.015.4-.047.509.975.036.349.139,1.334.142,1.367a22.173,22.173,0,0,1,2.994-1.2,3.7,3.7,0,0,1,1.529-.011,1.884,1.884,0,0,1,.465.166,15.491,15.491,0,0,1,3.064,1.751s-.8-.427-2.85.894c-.442.285-1.566,1.19-1.616,1.227a27.253,27.253,0,0,1,4.569,1.357,20.064,20.064,0,0,1,2.658,1.289c.564.33.863.543.863.543a30.444,30.444,0,0,1,1.342,4.134s-.32-.18-.918-.46a25.919,25.919,0,0,0-2.845-1.121,38.191,38.191,0,0,0-4.922-1.224c.661.742,3.3,3.73,4.4,5.168" transform="translate(-258.982)" fill="#fff" fill-rule="evenodd"/>
    </g>
  </g>
</svg>
