<svg id="School_Tracking_Solution" data-name="School Tracking Solution" xmlns="http://www.w3.org/2000/svg" xmlns:xlink="http://www.w3.org/1999/xlink" width="54.235" height="59.998" viewBox="0 0 54.235 59.998">
  <defs>
    <clipPath id="clip-path">
      <rect id="Rectangle_5858" data-name="Rectangle 5858" width="54.235" height="59.998" fill="none"/>
    </clipPath>
  </defs>
  <g id="Group_41" data-name="Group 41" clip-path="url(#clip-path)">
    <path id="Path_90" data-name="Path 90" d="M63.62,73.259H60.9a2.717,2.717,0,1,0,0,5.434H63.62a2.717,2.717,0,1,0,0-5.434" transform="translate(-25.64 -32.283)" fill="#00abbe"/>
    <path id="Path_91" data-name="Path 91" d="M29.614,73.259H26.9a2.717,2.717,0,1,0,0,5.434h2.717a2.717,2.717,0,0,0,0-5.434" transform="translate(-10.655 -32.283)" fill="#00abbe"/>
    <path id="Path_92" data-name="Path 92" d="M52.652,26.385a2.7,2.7,0,0,0-3.529,1.359l-.274.543A13.5,13.5,0,0,0,38.439,15.613a13.286,13.286,0,0,1-1.762,5.168,8.017,8.017,0,0,1,6.74,7.758V39.7H10.808V28.835a8,8,0,0,1,6.751-8.054A13.312,13.312,0,0,1,15.8,15.607,13.516,13.516,0,0,0,5.371,28.287L5.1,27.745a2.892,2.892,0,0,0-3.535-1.359A2.892,2.892,0,0,0,.208,29.92l2.718,5.431a2.613,2.613,0,0,0,2.444,1.633v16.3a8.008,8.008,0,0,0,7.859,8.15,2.621,2.621,0,0,0,.3,0v2.718a2.716,2.716,0,1,0,5.431,0V61.439h16.3v2.718a2.718,2.718,0,1,0,5.437,0V61.439a8,8,0,0,0,8.15-7.859,2.522,2.522,0,0,0,0-.291V36.711h.543a2.7,2.7,0,0,0,2.176-1.628l2.444-5.163a2.7,2.7,0,0,0-1.359-3.535m-9.235,26.9a2.57,2.57,0,0,1-2.405,2.718,2.926,2.926,0,0,1-.313,0H13.526A2.571,2.571,0,0,1,10.808,53.6a2.822,2.822,0,0,1,0-.308V45.134H43.417Z" transform="translate(0 -6.877)" fill="#00abbe"/>
    <path id="Path_93" data-name="Path 93" d="M42.2,0H41.82a8.043,8.043,0,0,0-7.856,8.038c0,3.57,2.441,6.332,4.224,8.346l.34.385a4.736,4.736,0,0,0,7.119,0l.34-.385c1.779-2.018,4.22-4.78,4.22-8.346A8.042,8.042,0,0,0,42.36,0Zm4.592,8.038c0,2.458-2.189,4.737-3.716,6.482a1.312,1.312,0,0,1-1.851.12,1.343,1.343,0,0,1-.12-.12c-1.531-1.745-3.72-4.027-3.72-6.482A4.664,4.664,0,0,1,41.931,3.42h.317a4.665,4.665,0,0,1,4.545,4.618" transform="translate(-14.967)" fill="#f99e4b"/>
    <path id="Path_94" data-name="Path 94" d="M48.854,13.175a1.71,1.71,0,1,1-1.71-1.71,1.71,1.71,0,0,1,1.71,1.71Z" transform="translate(-20.021 -5.052)" fill="#f99e4b"/>
  </g>
</svg>
