<svg xmlns="http://www.w3.org/2000/svg" width="60" height="60" viewBox="0 0 60 60">
  <g id="Standard_Tracking_" data-name="Standard Tracking " transform="translate(-155.929 -1928)">
    <g id="Path_55" data-name="Path 55" transform="translate(-219.612 1827.205)" fill="#00abbe">
      <path d="M 431.8554382324219 117.7438430786133 C 431.8554077148438 117.7438430786133 431.8554077148438 117.7438430786133 431.8553771972656 117.7438430786133 C 431.7910766601562 117.7438430786133 431.7261047363281 117.7409591674805 431.6619262695312 117.7352828979492 C 431.1045837402344 117.6607208251953 430.5961608886719 117.3866348266602 430.2284545898438 116.9620132446289 C 429.8561706542969 116.5320358276367 429.6573181152344 115.9820251464844 429.6685791015625 115.4133834838867 L 429.6688842773438 115.3985137939453 L 429.6688842773438 115.3836441040039 L 429.6688842773438 110.0112915039062 C 429.6688842773438 109.1189651489258 429.3217163085938 108.2796859741211 428.6912841796875 107.648063659668 C 428.0577697753906 107.0157699584961 427.2187194824219 106.6685943603516 426.32666015625 106.6684265136719 L 426.32666015625 106.6684265136719 L 426.3260192871094 106.6684265136719 L 420.7973327636719 106.6684265136719 L 420.7940979003906 106.6684265136719 L 420.7908630371094 106.6684341430664 L 420.7813415527344 106.66845703125 C 420.1669311523438 106.66845703125 419.5774841308594 106.4081954956055 419.1641540527344 105.9544143676758 C 418.7520751953125 105.5027694702148 418.548095703125 104.89697265625 418.6019897460938 104.2886123657227 C 418.676513671875 103.7312698364258 418.9503784179688 103.2232818603516 419.3746643066406 102.8562850952148 C 419.7925415039062 102.4944458007812 420.3262939453125 102.2954406738281 420.878173828125 102.2954406738281 C 420.8933715820312 102.2954406738281 420.9085998535156 102.2955932617188 420.923828125 102.2958908081055 L 420.938720703125 102.2961959838867 L 420.95361328125 102.2961959838867 L 426.3259582519531 102.2961959838867 C 428.3872680664062 102.2961959838867 430.3246154785156 103.0986251831055 431.7810974121094 104.5556716918945 C 433.238525390625 106.0126037597656 434.0409545898438 107.9499435424805 434.0409545898438 110.0111923217773 L 434.0411376953125 115.5399703979492 L 434.0411376953125 115.5436553955078 L 434.0411682128906 115.5473251342773 C 434.0442199707031 116.1648101806641 433.7841796875 116.7573852539062 433.3277893066406 117.1731033325195 C 432.9238891601562 117.5412902832031 432.4011535644531 117.7438430786133 431.8554382324219 117.7438430786133 Z" stroke="none"/>
      <path d="M 420.8781433105469 103.7954406738281 C 420.6868591308594 103.7954406738281 420.5018310546875 103.8644409179688 420.3559875488281 103.9907455444336 C 420.218017578125 104.1100845336914 420.1260070800781 104.2731475830078 420.0940246582031 104.4534454345703 C 420.0866394042969 104.6332626342773 420.1502990722656 104.8097610473633 420.2731018066406 104.9443435668945 C 420.40283203125 105.0867614746094 420.5880737304688 105.16845703125 420.7861328125 105.1684417724609 L 420.7973327636719 105.1684265136719 L 426.32666015625 105.1684265136719 C 427.6188354492188 105.1686096191406 428.834228515625 105.6714477539062 429.7489013671875 106.5843658447266 L 429.7529602050781 106.5884246826172 C 430.6660461425781 107.5032424926758 431.1688842773438 108.7188415527344 431.1688842773438 110.0112915039062 L 431.1683044433594 115.4431228637695 C 431.1643676757812 115.6403121948242 431.2333679199219 115.8310623168945 431.3623962402344 115.9800872802734 C 431.4824829101562 116.118766784668 431.6461791992188 116.2112121582031 431.8268737792969 116.2432479858398 C 432.0083312988281 116.2508544921875 432.1832275390625 116.1867141723633 432.3177185058594 116.0641555786133 C 432.460693359375 115.9339370727539 432.5421447753906 115.7482528686523 432.5411682128906 115.5547332763672 L 432.5411376953125 115.5400238037109 L 432.5409545898438 110.0111923217773 C 432.5409545898438 108.350700378418 431.8946228027344 106.7901000976562 430.7202453613281 105.6161270141602 C 429.5470581054688 104.4425201416016 427.9864807128906 103.7961959838867 426.3259582519531 103.7961959838867 L 420.8781433105469 103.7954406738281 M 420.878173828125 100.7954483032227 C 420.9032897949219 100.7954483032227 420.928466796875 100.7956924438477 420.95361328125 100.7961959838867 L 426.3259582519531 100.7961959838867 C 428.7698974609375 100.7961959838867 431.1141357421875 101.766731262207 432.8419494628906 103.4952011108398 C 434.5703430175781 105.223014831543 435.5409545898438 107.5672454833984 435.5409545898438 110.0111923217773 L 435.5411376953125 115.539924621582 C 435.5462951660156 116.5831909179688 435.1091918945312 117.5794830322266 434.3378601074219 118.2820434570312 C 433.56640625 118.9852600097656 432.5340881347656 119.3278732299805 431.4960021972656 119.2263031005859 C 430.5645751953125 119.1099472045898 429.7090148925781 118.6535720825195 429.0945129394531 117.9439468383789 C 428.4800109863281 117.2342147827148 428.1502685546875 116.3221054077148 428.1688842773438 115.3836441040039 L 428.1688842773438 110.0112915039062 C 428.1688842773438 109.5221328735352 427.9747924804688 109.0535507202148 427.6296081542969 108.7077102661133 C 427.2837829589844 108.3625411987305 426.815185546875 108.1684265136719 426.3260192871094 108.1684265136719 L 426.32666015625 108.1684265136719 L 420.7973327636719 108.1684265136719 C 419.7527160644531 108.173095703125 418.7577819824219 107.7358322143555 418.0552062988281 106.964485168457 C 417.3519897460938 106.1937103271484 417.0093994140625 105.1607513427734 417.1109619140625 104.1226425170898 C 417.2273254394531 103.1912231445312 417.6836853027344 102.3356704711914 418.3933410644531 101.7218170166016 C 419.0840148925781 101.1237716674805 419.9663391113281 100.7954330444336 420.878173828125 100.7954483032227 Z" stroke="none" fill="#00abbe"/>
    </g>
    <g id="Path_56" data-name="Path 56" transform="translate(-14.866 1827.2)" fill="#00abbe">
      <path d="M 174.4822082519531 117.7486419677734 C 174.4821319580078 117.7486419677734 174.4821472167969 117.7486419677734 174.4820861816406 117.7486419677734 C 174.4177703857422 117.7486419677734 174.3527526855469 117.7457656860352 174.2885589599609 117.7400817871094 C 173.7312927246094 117.6655349731445 173.2232818603516 117.3916625976562 172.8562774658203 116.967399597168 C 172.4834594726562 116.5368194580078 172.2846069335938 115.9868392944336 172.2958984375 115.4182510375977 L 172.2962036132812 115.4033584594727 L 172.2962036132812 115.3884582519531 L 172.2962188720703 110.0159759521484 C 172.2962188720703 107.9546432495117 173.0986480712891 106.0173110961914 174.5556945800781 104.5608367919922 C 176.0126342773438 103.103401184082 177.9499664306641 102.3009719848633 180.01123046875 102.3009719848633 L 185.5398864746094 102.3009719848633 L 185.5435791015625 102.3009719848633 L 185.5472869873047 102.3009490966797 L 185.5581207275391 102.3009262084961 C 186.1714935302734 102.3009262084961 186.7601165771484 102.5609512329102 187.1730499267578 103.0143203735352 C 187.5849761962891 103.466194152832 187.7891235351562 104.072135925293 187.7352600097656 104.6802062988281 C 187.6607055664062 105.2375411987305 187.3866119384766 105.7459564208984 186.9619903564453 106.1136627197266 C 186.5447082519531 106.4749603271484 186.0109558105469 106.673957824707 185.4591064453125 106.673957824707 C 185.4439086914062 106.673957824707 185.4286499023438 106.6738128662109 185.4134216308594 106.6735076904297 L 185.3985290527344 106.673210144043 L 185.3836212158203 106.673210144043 L 180.0112609863281 106.673210144043 C 178.1680297851562 106.673210144043 176.6684417724609 108.1727981567383 176.6684417724609 110.0160522460938 L 176.6684417724609 115.5447158813477 L 176.6684417724609 115.5479583740234 L 176.66845703125 115.5511932373047 C 176.6711273193359 116.1692504882812 176.4108734130859 116.7621459960938 175.9544372558594 117.1778793334961 C 175.5507202148438 117.5462265014648 175.0281677246094 117.7486419677734 174.4822082519531 117.7486419677734 Z" stroke="none"/>
      <path d="M 174.482177734375 116.2486419677734 C 174.6532135009766 116.2486419677734 174.8166961669922 116.185417175293 174.9443664550781 116.0689315795898 C 175.0876312255859 115.9384460449219 175.1693115234375 115.7520980834961 175.1684722900391 115.5576629638672 L 175.1684417724609 115.5447158813477 L 175.1684417724609 110.0160522460938 C 175.1684417724609 107.345703125 177.3409271240234 105.173210144043 180.0112609863281 105.173210144043 L 185.4591064453125 105.173957824707 C 185.650390625 105.173957824707 185.83544921875 105.1049423217773 185.9800567626953 104.9797210693359 C 186.1187286376953 104.8596496582031 186.2111663818359 104.6959686279297 186.2432098388672 104.5153121948242 C 186.2505340576172 104.3355560302734 186.1866149902344 104.1587753295898 186.0640869140625 104.0243682861328 C 185.9347686767578 103.8823699951172 185.7503356933594 103.8009262084961 185.5546112060547 103.8009262084961 L 185.5398864746094 103.8009719848633 L 180.01123046875 103.8009719848633 C 178.3507385253906 103.8009719848633 176.7901458740234 104.4473114013672 175.6161499023438 105.621711730957 C 174.4425506591797 106.7948379516602 173.7962188720703 108.3554229736328 173.7962188720703 110.0159759521484 L 173.7956085205078 115.4480590820312 C 173.7916870117188 115.645149230957 173.8606567382812 115.8358383178711 173.9907379150391 115.9860687255859 C 174.110107421875 116.1240539550781 174.2731628417969 116.2160797119141 174.4534606933594 116.2480392456055 C 174.4630126953125 116.2484359741211 174.4725494384766 116.2486419677734 174.4820251464844 116.2486419677734 L 174.482177734375 116.2486419677734 M 174.4820251464844 119.2486419677734 C 174.3626098632812 119.2486419677734 174.2425994873047 119.2428359985352 174.1226501464844 119.2311019897461 C 173.1912231445312 119.11474609375 172.335693359375 118.6583786010742 171.7218322753906 117.9487380981445 C 171.1072998046875 117.2390060424805 170.7775573730469 116.3269119262695 170.7962036132812 115.3884506225586 L 170.7962188720703 110.0159683227539 C 170.7962188720703 107.5720062255859 171.7667541503906 105.227783203125 173.4952392578125 103.4999694824219 C 175.2230529785156 101.7715682983398 177.5672607421875 100.8009719848633 180.01123046875 100.8009719848633 L 185.5398864746094 100.8009719848633 C 185.5459899902344 100.8009414672852 185.552001953125 100.8009262084961 185.5581207275391 100.8009262084961 C 186.5947265625 100.8009262084961 187.5835876464844 101.2374420166016 188.2820129394531 102.0042572021484 C 188.9852447509766 102.7756881713867 189.3278350830078 103.8079986572266 189.2262725830078 104.8460998535156 C 189.1099243164062 105.7775421142578 188.6535491943359 106.6330871582031 187.9439086914062 107.2475967407227 C 187.2341766357422 107.8621063232422 186.3220977783203 108.1916198730469 185.3836212158203 108.173210144043 L 180.0112609863281 108.173210144043 C 178.9931335449219 108.173210144043 178.1684417724609 108.9978713989258 178.1684417724609 110.0160522460938 L 178.1684417724609 115.5447158813477 C 178.1729431152344 116.5879898071289 177.73583984375 117.5842819213867 176.9644927978516 118.2868423461914 C 176.2827758789062 118.908821105957 175.3961029052734 119.2486801147461 174.4820251464844 119.2486419677734 Z" stroke="none" fill="#00abbe"/>
    </g>
    <g id="Path_57" data-name="Path 57" transform="translate(-14.87 1622.459)" fill="#00abbe">
      <path d="M 185.5616302490234 364.0405578613281 L 185.55078125 364.0405578613281 L 185.5470733642578 364.04052734375 L 185.5433654785156 364.04052734375 L 180.0146789550781 364.04052734375 C 177.953369140625 364.04052734375 176.0160217285156 363.2380981445312 174.5595550537109 361.7810668945312 C 173.1021118164062 360.3241271972656 172.2996826171875 358.3867797851562 172.2996826171875 356.3255310058594 L 172.2996520996094 350.7968139648438 L 172.2996520996094 350.7931213378906 L 172.2996368408203 350.7894287109375 C 172.2965850830078 350.1719360351562 172.5566101074219 349.5793762207031 173.0130310058594 349.1636352539062 C 173.4169464111328 348.7954406738281 173.9397125244141 348.5928955078125 174.4854736328125 348.5928955078125 C 174.5497131347656 348.5928955078125 174.6146697998047 348.5957641601562 174.6788787841797 348.6014709472656 C 175.2361755371094 348.676025390625 175.74462890625 348.9501342773438 176.1123657226562 349.3747863769531 C 176.4846649169922 349.8047180175781 176.6835021972656 350.3547058105469 176.6721954345703 350.9232788085938 L 176.6719055175781 350.9382019042969 L 176.6719055175781 350.9530944824219 L 176.6719055175781 356.325439453125 C 176.6719055175781 358.168701171875 178.1714935302734 359.6683044433594 180.0147399902344 359.6683044433594 L 185.3870849609375 359.6683044433594 L 185.4020080566406 359.6683044433594 L 185.4169158935547 359.6679992675781 C 185.4322052001953 359.6676940917969 185.4473876953125 359.6675415039062 185.462646484375 359.6675415039062 C 186.0144958496094 359.6675415039062 186.5482177734375 359.8665466308594 186.9654693603516 360.2278442382812 C 187.39013671875 360.5956420898438 187.6642608642578 361.1041259765625 187.7387390136719 361.6614379882812 C 187.7925415039062 362.2694702148438 187.5884399414062 362.8753662109375 187.1770172119141 363.32666015625 C 186.7636260986328 363.7805786132812 186.1750335693359 364.0405578613281 185.5616302490234 364.0405578613281 Z" stroke="none"/>
      <path d="M 185.5436859130859 365.4873962402344 L 185.5616302490234 362.5405578613281 C 185.7538299560547 362.5405578613281 185.9382019042969 362.4591674804688 186.0685272216797 362.3160705566406 C 186.1902008056641 362.1825866699219 186.2540283203125 362.0059204101562 186.2466735839844 361.8261413574219 C 186.2146453857422 361.6455383300781 186.1221466064453 361.4818420410156 185.9835510253906 361.3617858886719 C 185.8388977050781 361.2365417480469 185.6539001464844 361.1675415039062 185.462646484375 361.1675415039062 L 185.3870849609375 361.1683044433594 L 180.0147399902344 361.1683044433594 C 177.3443908691406 361.1683044433594 175.1719055175781 358.9957885742188 175.1719055175781 356.325439453125 L 175.1724853515625 350.8934936523438 C 175.1764068603516 350.6963806152344 175.1074523925781 350.5057067871094 174.9784393310547 350.3567199707031 C 174.8583221435547 350.218017578125 174.6946105957031 350.1255493164062 174.5139312744141 350.093505859375 C 174.3322296142578 350.085693359375 174.1575622558594 350.1500244140625 174.0230865478516 350.2725830078125 C 173.8801116943359 350.40283203125 173.7986602783203 350.5885009765625 173.7996063232422 350.7820434570312 L 173.7996520996094 350.7967834472656 L 173.7996826171875 356.3255310058594 C 173.7996826171875 357.9860229492188 174.4460144042969 359.546630859375 175.6204223632812 360.7206115722656 C 176.7935485839844 361.8941955566406 178.3541259765625 362.54052734375 180.0146789550781 362.54052734375 L 185.5440063476562 362.54052734375 L 185.5436859130859 365.4873962402344 M 185.5616302490234 365.5405578613281 C 185.5555877685547 365.5405578613281 185.5494079589844 365.5405578613281 185.5433654785156 365.54052734375 L 185.5440063476562 365.54052734375 L 180.0146789550781 365.54052734375 C 177.5707397460938 365.54052734375 175.2265014648438 364.5700073242188 173.4986877441406 362.8415222167969 C 171.7702789306641 361.1137084960938 170.7996826171875 358.7694702148438 170.7996826171875 356.3255310058594 L 170.7996520996094 350.7968139648438 C 170.7945098876953 349.7535705566406 171.2316131591797 348.7572631835938 172.0029602050781 348.0546875 C 172.7743988037109 347.3514709472656 173.8067321777344 347.0089111328125 174.8448028564453 347.1104431152344 C 175.7762298583984 347.226806640625 176.6317749023438 347.6831970214844 177.2462921142578 348.392822265625 C 177.8608093261719 349.1025390625 178.1905517578125 350.0146179199219 178.1719055175781 350.9530944824219 L 178.1719055175781 356.325439453125 C 178.1719055175781 357.3435974121094 178.99658203125 358.1683044433594 180.0147399902344 358.1683044433594 L 185.3870849609375 358.1683044433594 C 186.3249206542969 358.1490173339844 187.2377471923828 358.4794006347656 187.9473876953125 359.0939025878906 C 188.6570129394531 359.70849609375 189.1134185791016 360.5639953613281 189.2297515869141 361.4953918457031 C 189.3313140869141 362.5335693359375 188.9886932373047 363.5658874511719 188.2854919433594 364.3372192382812 C 187.5870819091797 365.1040954589844 186.5982818603516 365.5405578613281 185.5616302490234 365.5405578613281 Z" stroke="none" fill="#00abbe"/>
    </g>
    <g id="Path_58" data-name="Path 58" transform="translate(-219.612 1622.461)" fill="#00abbe">
      <path d="M 420.7785034179688 364.0387878417969 C 420.1651000976562 364.0387878417969 419.576416015625 363.7787780761719 419.1634521484375 363.3253784179688 C 418.7515563964844 362.87353515625 418.5473937988281 362.2676391601562 418.6012268066406 361.6596069335938 C 418.6757202148438 361.1022033691406 418.9498291015625 360.5937805175781 419.3744812011719 360.22607421875 C 419.7917785644531 359.86474609375 420.3255615234375 359.6657409667969 420.87744140625 359.6657409667969 C 420.8926391601562 359.6657409667969 420.9078674316406 359.6658935546875 420.923095703125 359.6661987304688 L 420.93798828125 359.66650390625 L 420.952880859375 359.66650390625 L 426.3251953125 359.66650390625 C 427.217529296875 359.66650390625 428.0568237304688 359.3193054199219 428.6884460449219 358.6888732910156 C 429.3208618164062 358.0552978515625 429.6680908203125 357.2160034179688 429.6680908203125 356.3236083984375 L 429.6680908203125 350.9512939453125 L 429.6680908203125 350.9364318847656 L 429.6677856445312 350.9215393066406 C 429.6565246582031 350.3528442382812 429.8553466796875 349.8028564453125 430.2276611328125 349.3728942871094 C 430.5953674316406 348.9483032226562 431.103759765625 348.6741943359375 431.6610412597656 348.5996398925781 C 431.7252502441406 348.5939636230469 431.7902221679688 348.5910949707031 431.8544921875 348.5910949707031 C 432.4002990722656 348.5910949707031 432.923095703125 348.7936096191406 433.3265075683594 349.161376953125 C 433.7833862304688 349.5774841308594 434.0433959960938 350.1700744628906 434.0403747558594 350.7876281738281 L 434.0403442382812 350.7912902832031 L 434.0403442382812 350.7949523925781 L 434.040283203125 356.3236999511719 C 434.040283203125 358.3850708007812 433.2378540039062 360.3224182128906 431.7808532714844 361.7788391113281 C 430.3238525390625 363.2362976074219 428.3865051269531 364.0387573242188 426.3252563476562 364.0387573242188 L 420.796630859375 364.0387573242188 L 420.7929382324219 364.0387573242188 L 420.7892761230469 364.0387878417969 L 420.7785034179688 364.0387878417969 Z" stroke="none"/>
      <path d="M 431.8541564941406 350.0910949707031 C 431.8448486328125 350.0910949707031 431.8354797363281 350.0912780761719 431.8260803222656 350.0916748046875 C 431.6453857421875 350.1237182617188 431.4816284179688 350.2162170410156 431.3616027832031 350.3547973632812 C 431.2325134277344 350.5038757324219 431.16357421875 350.694580078125 431.1675109863281 350.8918151855469 L 431.1680908203125 350.9512939453125 L 431.1680908203125 356.3236083984375 C 431.1680908203125 357.6161499023438 430.6651916503906 358.831787109375 429.7520141601562 359.7466125488281 L 429.7481079101562 359.7505187988281 C 428.8332824707031 360.6636352539062 427.61767578125 361.16650390625 426.3251953125 361.16650390625 L 420.87744140625 361.1657409667969 C 420.6861267089844 361.1657409667969 420.5010375976562 361.2347717285156 420.3563842773438 361.3600158691406 C 420.2177429199219 361.4800720214844 420.1253051757812 361.6437377929688 420.0932922363281 361.8243713378906 C 420.0859680175781 362.004150390625 420.1498718261719 362.180908203125 420.2723693847656 362.3152770996094 C 420.4017333984375 362.4573364257812 420.5862121582031 362.5387878417969 420.7818908691406 362.5387878417969 L 420.796630859375 362.5387573242188 L 426.3252563476562 362.5387573242188 C 427.9857482910156 362.5387573242188 429.5463562011719 361.8923950195312 430.7203979492188 360.7179870605469 C 431.8939819335938 359.5448913574219 432.540283203125 357.9843139648438 432.540283203125 356.3236999511719 L 432.5403747558594 350.7802429199219 C 432.5413208007812 350.586669921875 432.4598999023438 350.4010009765625 432.3159790039062 350.2698974609375 C 432.1894836425781 350.1546020507812 432.0255737304688 350.0910949707031 431.8543701171875 350.0910949707031 L 431.8541564941406 350.0910949707031 M 431.8544616699219 347.091064453125 C 432.7684326171875 347.0910949707031 433.6548461914062 347.4309692382812 434.3370361328125 348.0528564453125 C 435.1083984375 348.75537109375 435.5454711914062 349.7517700195312 435.5403442382812 350.7949829101562 L 435.540283203125 356.32373046875 C 435.540283203125 358.7677001953125 434.5697631835938 361.1119384765625 432.84130859375 362.8397216796875 C 431.1134643554688 364.568115234375 428.7692260742188 365.5387573242188 426.3252563476562 365.5387573242188 L 426.325927734375 365.5387573242188 L 420.796630859375 365.5387573242188 C 419.7556762695312 365.5426635742188 418.757080078125 365.1068115234375 418.0545043945312 364.33544921875 C 417.3512573242188 363.5640258789062 417.0086669921875 362.5316772460938 417.1102294921875 361.4935913085938 C 417.2265625 360.5621643066406 417.6829223632812 359.7066040039062 418.392578125 359.0921020507812 C 419.102294921875 358.4776306152344 420.0133361816406 358.1482849121094 420.952880859375 358.16650390625 L 426.3251953125 358.16650390625 C 426.8143920898438 358.16650390625 427.282958984375 357.9723815917969 427.6287841796875 357.627197265625 C 427.9739990234375 357.2813720703125 428.1680908203125 356.8128051757812 428.1680908203125 356.3236083984375 L 428.1680908203125 350.9512939453125 C 428.1494750976562 350.0127563476562 428.4791870117188 349.1006469726562 429.0936889648438 348.3909912109375 C 429.7083129882812 347.6813354492188 430.5637817382812 347.2249755859375 431.4951782226562 347.1086120605469 C 431.6152038574219 347.0968627929688 431.7350158691406 347.091064453125 431.8544616699219 347.091064453125 Z" stroke="none" fill="#00abbe"/>
    </g>
    <g id="Group_19" data-name="Group 19" transform="translate(173.278 1944.159)">
      <path id="Path_59" data-name="Path 59" d="M256.43,162.4h-.593A12.525,12.525,0,0,0,243.6,174.919c0,5.56,3.8,9.862,6.579,13l.533.6h0a7.371,7.371,0,0,0,11.087,0l.533-.6c2.77-3.143,6.572-7.445,6.572-13A12.525,12.525,0,0,0,256.676,162.4Zm7.152,12.519c0,3.829-3.409,7.378-5.787,10.095a2.044,2.044,0,0,1-3.07,0c-2.384-2.717-5.794-6.272-5.794-10.095a7.265,7.265,0,0,1,7.079-7.192h.492a7.265,7.265,0,0,1,7.079,7.192Z" transform="translate(-243.605 -162.4)" fill="#f99e4b"/>
      <path id="Path_60" data-name="Path 60" d="M332.931,249.062a2.663,2.663,0,1,1-2.663-2.664,2.663,2.663,0,0,1,2.663,2.664" transform="translate(-317.616 -236.41)" fill="#f99e4b"/>
    </g>
  </g>
</svg>
