<svg xmlns="http://www.w3.org/2000/svg" width="53.046" height="60" viewBox="0 0 53.046 60">
  <g id="taxi" transform="translate(52.03 -149.059)">
    <path id="Path_533" data-name="Path 533" d="M-1.619,211.85H-5.067l-2.257-7.039a8.629,8.629,0,0,0-8.214-6.088H-35.414a8.629,8.629,0,0,0-8.214,6.088l-2.257,7.04h-3.449a2.691,2.691,0,0,0-2.7,2.727v1.585a2.692,2.692,0,0,0,2.7,2.727h1a35.716,35.716,0,0,0-.878,7.737v13.318a2.691,2.691,0,0,0,2.7,2.727h4.577a2.691,2.691,0,0,0,2.7-2.727V235.7h27.463v4.249a2.691,2.691,0,0,0,2.7,2.727H-4.5a2.691,2.691,0,0,0,2.7-2.727V226.627a35.7,35.7,0,0,0-.878-7.737h1a2.692,2.692,0,0,0,2.7-2.727v-1.585a2.638,2.638,0,0,0-2.633-2.727ZM-41.057,214.7l2.633-8.245a3.185,3.185,0,0,1,3.073-2.22h19.813a3.243,3.243,0,0,1,3.073,2.22l2.633,8.245a.593.593,0,0,1-.564.761H-40.555a.558.558,0,0,1-.5-.761Zm5.705,13.508H-40.87a1.7,1.7,0,0,1-1.693-1.713v-2.664a1.675,1.675,0,0,1,1.944-1.649l5.142.825a1.677,1.677,0,0,1,1.379,1.332l.376,1.776a1.7,1.7,0,0,1-1.63,2.092Zm26.9-1.713a1.7,1.7,0,0,1-1.693,1.713h-5.518a1.671,1.671,0,0,1-1.63-2.03l.376-1.776a1.678,1.678,0,0,1,1.379-1.332l5.142-.825A1.675,1.675,0,0,1-8.454,223.9Z" transform="translate(0 -33.612)" fill="#00abbe"/>
    <path id="Path_534" data-name="Path 534" d="M-13.261,161.348h4.452a1.123,1.123,0,0,0,1.128-1.128v-4.389h4.327v4.389a1.124,1.124,0,0,0,1.128,1.128H2.289a1.124,1.124,0,0,0,1.128-1.128v-4.389H7.743v4.389a1.124,1.124,0,0,0,1.128,1.128h4.515a1.124,1.124,0,0,0,1.128-1.128V155.7a1.124,1.124,0,0,0-1.129-1.128H9v-4.389a1.124,1.124,0,0,0-1.128-1.129H3.356a1.124,1.124,0,0,0-1.129,1.129v4.389H-2.1v-4.389a1.124,1.124,0,0,0-1.129-1.129H-7.742a1.124,1.124,0,0,0-1.129,1.129v4.389H-13.26a1.124,1.124,0,0,0-1.128,1.128v4.515a1.122,1.122,0,0,0,1.127,1.128Z" transform="translate(-25.476)" fill="#f99e4b"/>
  </g>
</svg>
