<svg xmlns="http://www.w3.org/2000/svg" width="60" height="60" viewBox="0 0 60 60">
  <g id="waste" transform="translate(-319.506 -318.998)">
    <g id="Group_10803" data-name="Group 10803">
      <g id="Standard_Tracking_" data-name="Standard Tracking ">
        <g id="Path_55" data-name="Path 55">
          <path id="Path_520" data-name="Path 520" d="M375.821,335.947h0c-.064,0-.129,0-.193-.009a2.3,2.3,0,0,1-1.993-2.322v-5.4a3.343,3.343,0,0,0-3.342-3.343h-5.546a2.187,2.187,0,0,1-2.179-2.379,2.3,2.3,0,0,1,2.276-1.994h5.448a7.716,7.716,0,0,1,7.715,7.715v5.536a2.186,2.186,0,0,1-2.185,2.2Z" fill="#00abbe"/>
          <path id="Path_521" data-name="Path 521" d="M364.843,322a.8.8,0,0,0-.784.658.687.687,0,0,0,.692.715h5.541a4.818,4.818,0,0,1,3.422,1.416l0,0a4.816,4.816,0,0,1,1.416,3.423v5.432a.8.8,0,0,0,.659.8.686.686,0,0,0,.714-.688v-5.544A6.216,6.216,0,0,0,370.291,322h-5.448m0-3h5.448a9.215,9.215,0,0,1,9.215,9.215v5.529a3.686,3.686,0,0,1-4.045,3.686,3.8,3.8,0,0,1-3.327-3.842v-5.373a1.842,1.842,0,0,0-1.843-1.843h-5.529a3.687,3.687,0,0,1-3.686-4.045A3.8,3.8,0,0,1,364.843,319Z" fill="#00abbe"/>
        </g>
        <g id="Path_56" data-name="Path 56">
          <path id="Path_522" data-name="Path 522" d="M323.193,335.947h0c-.064,0-.129,0-.193-.009a2.3,2.3,0,0,1-1.993-2.322v-5.4a7.716,7.716,0,0,1,7.715-7.715h5.547a2.186,2.186,0,0,1,2.177,2.379,2.3,2.3,0,0,1-2.276,1.994h-5.448a3.346,3.346,0,0,0-3.342,3.343v5.535a2.188,2.188,0,0,1-2.187,2.2Z" fill="#00abbe"/>
          <path id="Path_523" data-name="Path 523" d="M323.193,334.447a.69.69,0,0,0,.687-.691v-5.542a4.848,4.848,0,0,1,4.842-4.843h5.448a.8.8,0,0,0,.784-.659.686.686,0,0,0-.688-.714h-5.544a6.216,6.216,0,0,0-6.215,6.215v5.432a.8.8,0,0,0,.658.8h.028m0,3c-.119,0-.239-.006-.359-.018a3.8,3.8,0,0,1-3.327-3.843v-5.372A9.215,9.215,0,0,1,328.722,319h5.547a3.686,3.686,0,0,1,3.668,4.045,3.8,3.8,0,0,1-3.842,3.327h-5.373a1.842,1.842,0,0,0-1.842,1.843v5.529a3.688,3.688,0,0,1-3.687,3.7Z" fill="#00abbe"/>
        </g>
        <g id="Path_57" data-name="Path 57">
          <path id="Path_524" data-name="Path 524" d="M334.269,377.5h-5.547a7.714,7.714,0,0,1-7.715-7.715v-5.536a2.186,2.186,0,0,1,2.186-2.2c.064,0,.129,0,.193.008a2.3,2.3,0,0,1,1.993,2.322v5.4a3.347,3.347,0,0,0,3.343,3.343h5.448a2.3,2.3,0,0,1,2.276,1.994,2.186,2.186,0,0,1-2.177,2.379Z" fill="#00abbe"/>
          <path id="Path_525" data-name="Path 525" d="M334.251,378.944l.018-2.947a.685.685,0,0,0,.685-.714.8.8,0,0,0-.784-.659h-5.448a4.848,4.848,0,0,1-4.843-4.843V364.35a.8.8,0,0,0-.659-.8.687.687,0,0,0-.714.689v5.543A6.212,6.212,0,0,0,328.722,376h5.529v2.947m.018.053h-5.547a9.215,9.215,0,0,1-9.215-9.215v-5.528a3.687,3.687,0,0,1,4.045-3.687,3.8,3.8,0,0,1,3.327,3.843v5.372a1.842,1.842,0,0,0,1.843,1.843h5.372a3.8,3.8,0,0,1,3.843,3.327A3.686,3.686,0,0,1,334.269,379Z" fill="#00abbe"/>
        </g>
        <g id="Path_58" data-name="Path 58">
          <path id="Path_526" data-name="Path 526" d="M364.744,377.5a2.189,2.189,0,0,1-2.178-2.379,2.3,2.3,0,0,1,2.277-1.994h5.447a3.341,3.341,0,0,0,3.343-3.343v-5.4a2.3,2.3,0,0,1,1.993-2.322c.064-.006.129-.009.194-.009a2.185,2.185,0,0,1,2.185,2.2v5.536a7.714,7.714,0,0,1-7.715,7.715h-5.546Z" fill="#00abbe"/>
          <path id="Path_527" data-name="Path 527" d="M375.819,363.55h-.028a.8.8,0,0,0-.658.8v5.432a4.816,4.816,0,0,1-1.416,3.423l0,0a4.814,4.814,0,0,1-3.423,1.416h-5.447a.8.8,0,0,0-.785.658.687.687,0,0,0,.689.715h5.543a6.216,6.216,0,0,0,6.215-6.215v-5.544a.686.686,0,0,0-.686-.689h0m0-3a3.686,3.686,0,0,1,3.685,3.7v5.529A9.215,9.215,0,0,1,370.29,379h-5.528a3.688,3.688,0,0,1-3.687-4.045,3.8,3.8,0,0,1,3.843-3.327h5.372a1.842,1.842,0,0,0,1.843-1.843V364.41a3.8,3.8,0,0,1,3.327-3.842Q375.64,360.55,375.82,360.55Z" fill="#00abbe"/>
        </g>
      </g>
    </g>
    <g id="Group_10804" data-name="Group 10804">
      <path id="Path_528" data-name="Path 528" d="M346.177,359.7h.111a1.636,1.636,0,0,0,1.508-1.729l-1.03-14.787a1.662,1.662,0,0,0-1.729-1.508,1.636,1.636,0,0,0-1.508,1.729l1.03,14.787a1.638,1.638,0,0,0,1.619,1.508Z" fill="#f99e4b"/>
      <path id="Path_529" data-name="Path 529" d="M352.688,359.665h.111a1.639,1.639,0,0,0,1.618-1.508l1.03-14.787a1.635,1.635,0,0,0-1.508-1.729,1.662,1.662,0,0,0-1.729,1.508l-1.03,14.787a1.57,1.57,0,0,0,1.508,1.729Z" fill="#f99e4b"/>
      <path id="Path_530" data-name="Path 530" d="M365.342,335.167h-9.38l-1.729-2.427a1.724,1.724,0,0,0-1.361-.7H346.1a1.622,1.622,0,0,0-1.361.7l-1.729,2.427h-9.38a1.618,1.618,0,0,0,0,3.237h1.4l2.8,23.358a4.772,4.772,0,0,0,4.745,4.194H356.44a4.772,4.772,0,0,0,4.745-4.194l2.8-23.358h1.4A1.633,1.633,0,0,0,367,336.786a1.69,1.69,0,0,0-1.655-1.619Zm-7.394,26.19a1.514,1.514,0,0,1-1.508,1.361H342.573a1.516,1.516,0,0,1-1.509-1.361L338.306,338.4h22.4Z" fill="#f99e4b"/>
    </g>
  </g>
</svg>
