<svg xmlns="http://www.w3.org/2000/svg" width="60" height="59.998" viewBox="0 0 60 59.998">
  <g id="Weight_Monitoring_Solution" data-name="Weight Monitoring Solution" transform="translate(-1892.265 -2317)">
    <path id="Path_74" data-name="Path 74" d="M382.728,309.3l-3.749,3.749V300.551a3.749,3.749,0,0,0-7.5,0v12.5l-3.917-3.908h0a3.748,3.748,0,0,0-5.22-.159,3.89,3.89,0,0,0,0,5.576l6.982,6.964h0a8.254,8.254,0,0,0,6.41,2.456,8.7,8.7,0,0,0,5.539-2.615l6.917-6.907h0a3.75,3.75,0,0,0-.15-5.473,3.907,3.907,0,0,0-5.314.309Z" transform="translate(1562.959 2053.001)" fill="#f99e4b"/>
    <path id="Path_75" data-name="Path 75" d="M192.353,149.537h-10.31a3.749,3.749,0,0,1-3.749-3.749v-33.74a3.748,3.748,0,0,1,3.749-3.749h31.865a3.749,3.749,0,0,1,3.749,3.749v10.31a3.749,3.749,0,0,0,7.5,0v-10.31A11.248,11.248,0,0,0,213.909,100.8H182.043A11.248,11.248,0,0,0,170.8,112.048v33.74a11.248,11.248,0,0,0,11.247,11.247h10.31a3.749,3.749,0,0,0,0-7.5Z" transform="translate(1721.469 2216.198)" fill="#00abbe"/>
  </g>
</svg>
